<svg width="365" height="366" viewBox="0 0 365 366" fill="none" xmlns="http://www.w3.org/2000/svg">
<path d="M365 279.652H0V279.834H365V279.652Z" fill="#EBEBEB"/>
<path d="M328.427 291.398H264.99V291.58H328.427V291.398Z" fill="#EBEBEB"/>
<path d="M267.435 284.623H261.092V284.806H267.435V284.623Z" fill="#EBEBEB"/>
<path d="M218.496 290.675H204.488V290.857H218.496V290.675Z" fill="#EBEBEB"/>
<path d="M54.0638 285.85H38.2958V286.032H54.0638V285.85Z" fill="#EBEBEB"/>
<path d="M80.9497 285.85H60.5608V286.032H80.9497V285.85Z" fill="#EBEBEB"/>
<path d="M185.792 288.843H151.599V289.025H185.792V288.843Z" fill="#EBEBEB"/>
<path d="M173.01 247.094H32.0543C30.9501 247.092 29.8917 246.652 29.1116 245.871C28.3315 245.089 27.8933 244.03 27.8933 242.926V44.7818C27.9029 43.6839 28.3453 42.6341 29.1244 41.8605C29.9035 41.0869 30.9564 40.6519 32.0543 40.65H173.01C174.116 40.65 175.176 41.0892 175.957 41.8709C176.739 42.6526 177.178 43.7128 177.178 44.8183V242.926C177.178 244.031 176.739 245.091 175.957 245.873C175.176 246.655 174.116 247.094 173.01 247.094ZM32.0543 40.796C30.9985 40.7979 29.9865 41.2187 29.2406 41.966C28.4947 42.7133 28.0758 43.726 28.0758 44.7818V242.926C28.0758 243.982 28.4947 244.994 29.2406 245.741C29.9865 246.489 30.9985 246.91 32.0543 246.911H173.01C174.067 246.91 175.079 246.489 175.826 245.742C176.573 244.995 176.994 243.982 176.996 242.926V44.7818C176.994 43.7253 176.573 42.7126 175.826 41.9655C175.079 41.2185 174.067 40.7979 173.01 40.796H32.0543Z" fill="#EBEBEB"/>
<path d="M330.916 247.094H189.953C188.848 247.092 187.789 246.652 187.008 245.871C186.227 245.09 185.787 244.031 185.785 242.926V44.7818C185.797 43.6832 186.241 42.6335 187.021 41.86C187.801 41.0866 188.855 40.6519 189.953 40.65H330.916C332.013 40.6538 333.064 41.0896 333.842 41.8631C334.619 42.6365 335.06 43.6852 335.07 44.7818V242.926C335.07 244.029 334.633 245.087 333.854 245.868C333.076 246.649 332.019 247.09 330.916 247.094ZM189.953 40.796C188.897 40.7979 187.884 41.2185 187.137 41.9655C186.39 42.7126 185.969 43.7253 185.968 44.7818V242.926C185.969 243.982 186.39 244.995 187.137 245.742C187.884 246.489 188.897 246.91 189.953 246.911H330.916C331.973 246.91 332.986 246.489 333.733 245.742C334.48 244.995 334.9 243.982 334.902 242.926V44.7818C334.9 43.7253 334.48 42.7126 333.733 41.9655C332.986 41.2185 331.973 40.7979 330.916 40.796H189.953Z" fill="#EBEBEB"/>
<path d="M152.307 53.7462H39.4273V215.171H152.307V53.7462Z" fill="#E6E6E6"/>
<path d="M155.694 53.7462H41.0114V215.171H155.694V53.7462Z" fill="#F0F0F0"/>
<path d="M152.307 215.171H39.4273V218.128H152.307V215.171Z" fill="#E6E6E6"/>
<path d="M157.498 215.171H42.8145V218.128H157.498V215.171Z" fill="#F0F0F0"/>
<path d="M150.957 210.426V58.4839L45.7564 58.4839L45.7564 210.426H150.957Z" fill="#FAFAFA"/>
<path d="M94.3598 210.426L119.881 58.4912H133.021L107.5 210.426H94.3598Z" fill="white"/>
<path d="M61.2032 210.426L86.724 58.4912H99.864L74.3432 210.426H61.2032Z" fill="white"/>
<path d="M47.9464 134.163C47.7493 134.163 47.5887 133.922 47.5887 133.623V61.747C47.5887 61.4477 47.7493 61.2141 47.9464 61.2141C48.1435 61.2141 48.3114 61.4477 48.3114 61.747V133.623C48.3114 133.922 48.18 134.163 47.9464 134.163Z" fill="#F0F0F0"/>
<path d="M110.325 210.426L135.846 58.4912H140.963L115.442 210.426H110.325Z" fill="white"/>
<path d="M150.957 210.433V58.4912H150.358V210.433H150.957Z" fill="#E6E6E6"/>
<path opacity="0.5" d="M156.819 72.1933H43.9387L43.5007 60.3308H156.381L156.819 72.1933Z" fill="#E0E0E0"/>
<path opacity="0.5" d="M156.819 91.6843H43.9387L43.5007 79.8291H156.381L156.819 91.6843Z" fill="#E0E0E0"/>
<path opacity="0.5" d="M156.819 111.183H43.9387L43.5007 99.3274H156.381L156.819 111.183Z" fill="#E0E0E0"/>
<path opacity="0.5" d="M156.819 130.681H43.9387L43.5007 118.818H156.381L156.819 130.681Z" fill="#E0E0E0"/>
<path opacity="0.5" d="M156.819 150.172H43.9387L43.5007 138.317H156.381L156.819 150.172Z" fill="#E0E0E0"/>
<path opacity="0.5" d="M156.819 169.67H43.9387L43.5007 157.815H156.381L156.819 169.67Z" fill="#E0E0E0"/>
<path opacity="0.5" d="M156.819 81.9388H43.9387L43.5007 70.0763H156.381L156.819 81.9388Z" fill="#E0E0E0"/>
<path opacity="0.5" d="M156.819 101.437H43.9387L43.5007 89.5746H156.381L156.819 101.437Z" fill="#E0E0E0"/>
<path opacity="0.5" d="M156.819 120.928H43.9387L43.5007 109.073H156.381L156.819 120.928Z" fill="#E0E0E0"/>
<path opacity="0.5" d="M156.819 140.426H43.9387L43.5007 128.571H156.381L156.819 140.426Z" fill="#E0E0E0"/>
<path opacity="0.5" d="M156.819 159.925H43.9387L43.5007 148.062H156.381L156.819 159.925Z" fill="#E0E0E0"/>
<path opacity="0.5" d="M156.819 179.423H43.9387L43.5007 167.56H156.381L156.819 179.423Z" fill="#E0E0E0"/>
<path d="M216.861 164.422H194.362V277.17H216.861V164.422Z" fill="#F0F0F0"/>
<path d="M309.629 277.17H198.684V279.652H309.629V277.17Z" fill="#F0F0F0"/>
<path d="M216.854 277.17H313.937V164.422H216.854V277.17Z" fill="#F5F5F5"/>
<path d="M302.775 227.946H228.016C227.306 227.944 226.625 227.661 226.123 227.159C225.621 226.657 225.338 225.977 225.336 225.267V207.82C225.336 207.109 225.618 206.427 226.121 205.923C226.623 205.419 227.304 205.136 228.016 205.134H240.374C240.873 205.141 241.359 205.287 241.781 205.553C242.202 205.82 242.541 206.198 242.762 206.645C243.001 207.088 243.357 207.457 243.79 207.714C244.223 207.971 244.718 208.106 245.222 208.105H285.583C286.32 208.103 287.027 207.809 287.547 207.287C287.758 207.071 287.935 206.825 288.073 206.557C288.293 206.119 288.631 205.75 289.048 205.492C289.466 205.234 289.947 205.098 290.438 205.097H302.775C303.487 205.097 304.171 205.38 304.674 205.884C305.178 206.388 305.461 207.071 305.461 207.784V225.267C305.459 225.978 305.175 226.66 304.672 227.162C304.168 227.664 303.486 227.946 302.775 227.946ZM228.016 205.871C227.498 205.873 227.002 206.08 226.637 206.446C226.272 206.813 226.066 207.31 226.066 207.827V225.267C226.068 225.783 226.274 226.278 226.639 226.643C227.005 227.008 227.499 227.214 228.016 227.216H302.775C303.292 227.216 303.789 227.011 304.156 226.646C304.522 226.28 304.729 225.785 304.731 225.267V207.82C304.731 207.301 304.525 206.804 304.158 206.437C303.791 206.07 303.294 205.864 302.775 205.864H290.438C290.084 205.862 289.737 205.959 289.435 206.141C289.132 206.324 288.886 206.587 288.722 206.9C288.551 207.238 288.327 207.546 288.058 207.813C287.734 208.139 287.348 208.398 286.923 208.574C286.499 208.751 286.043 208.842 285.583 208.842H245.222C244.585 208.842 243.96 208.67 243.414 208.344C242.868 208.017 242.42 207.549 242.119 206.988C241.959 206.659 241.712 206.38 241.404 206.182C241.096 205.983 240.74 205.873 240.374 205.864L228.016 205.871Z" fill="#EBEBEB"/>
<path d="M302.775 258.409H228.016C227.306 258.407 226.625 258.124 226.123 257.622C225.621 257.12 225.338 256.44 225.336 255.73V238.29C225.336 237.579 225.618 236.897 226.121 236.393C226.623 235.89 227.304 235.606 228.016 235.604H240.374C240.873 235.612 241.359 235.757 241.781 236.023C242.202 236.29 242.541 236.668 242.762 237.115C243.001 237.558 243.357 237.927 243.79 238.184C244.223 238.441 244.718 238.576 245.222 238.575H285.583C285.948 238.576 286.308 238.505 286.644 238.364C286.98 238.224 287.285 238.018 287.54 237.757C287.755 237.544 287.935 237.297 288.073 237.027C288.293 236.589 288.631 236.22 289.048 235.962C289.466 235.705 289.947 235.568 290.438 235.567H302.775C303.487 235.567 304.171 235.85 304.674 236.354C305.178 236.858 305.461 237.541 305.461 238.254V255.693C305.465 256.049 305.398 256.401 305.265 256.73C305.132 257.06 304.935 257.359 304.685 257.612C304.435 257.864 304.138 258.065 303.81 258.202C303.482 258.339 303.13 258.409 302.775 258.409ZM228.016 236.334C227.498 236.336 227.002 236.543 226.637 236.909C226.272 237.276 226.066 237.773 226.066 238.29V255.73C226.068 256.246 226.274 256.741 226.639 257.106C227.005 257.471 227.499 257.677 228.016 257.679H302.775C303.292 257.679 303.789 257.474 304.156 257.109C304.522 256.743 304.729 256.248 304.731 255.73V238.29C304.731 237.771 304.525 237.274 304.158 236.907C303.791 236.54 303.294 236.334 302.775 236.334H290.438C290.084 236.333 289.737 236.429 289.435 236.612C289.132 236.794 288.886 237.057 288.722 237.37C288.551 237.708 288.327 238.016 288.058 238.283C287.735 238.611 287.35 238.871 286.925 239.048C286.5 239.225 286.044 239.315 285.583 239.312H245.222C244.585 239.313 243.96 239.14 243.414 238.814C242.868 238.487 242.42 238.019 242.119 237.458C241.959 237.129 241.712 236.85 241.404 236.652C241.096 236.454 240.74 236.344 240.374 236.334H228.016Z" fill="#EBEBEB"/>
<path d="M305.461 271.972H225.336V265.49H305.461V271.972ZM226.066 271.242H304.731V266.22H226.066V271.242Z" fill="#EBEBEB"/>
<path d="M302.775 197.49H228.016C227.306 197.489 226.625 197.206 226.123 196.704C225.621 196.202 225.338 195.521 225.336 194.811V177.372C225.336 176.66 225.618 175.978 226.121 175.475C226.623 174.971 227.304 174.687 228.016 174.685H240.374C240.872 174.692 241.358 174.837 241.779 175.102C242.2 175.367 242.54 175.743 242.762 176.189C243.001 176.632 243.356 177.002 243.789 177.26C244.223 177.517 244.718 177.651 245.222 177.649H285.583C286.32 177.647 287.027 177.353 287.547 176.831C287.758 176.616 287.935 176.37 288.073 176.101C288.293 175.663 288.631 175.294 289.048 175.036C289.466 174.779 289.947 174.642 290.438 174.641H302.775C303.128 174.641 303.477 174.711 303.803 174.846C304.129 174.981 304.425 175.179 304.674 175.428C304.924 175.678 305.122 175.974 305.257 176.3C305.392 176.626 305.461 176.975 305.461 177.328V194.768C305.466 195.123 305.4 195.477 305.267 195.807C305.134 196.137 304.937 196.437 304.687 196.691C304.438 196.944 304.14 197.145 303.811 197.283C303.483 197.42 303.131 197.491 302.775 197.49ZM228.016 175.415C227.498 175.417 227.002 175.624 226.637 175.991C226.272 176.358 226.066 176.854 226.066 177.372V194.811C226.068 195.328 226.274 195.822 226.639 196.187C227.005 196.553 227.499 196.759 228.016 196.76H302.775C303.292 196.76 303.789 196.555 304.156 196.19C304.522 195.825 304.729 195.329 304.731 194.811V177.372C304.731 176.853 304.525 176.355 304.158 175.988C303.791 175.621 303.294 175.415 302.775 175.415H290.438C290.084 175.414 289.737 175.51 289.435 175.693C289.132 175.876 288.886 176.138 288.722 176.452C288.551 176.79 288.327 177.098 288.058 177.364C287.734 177.691 287.349 177.951 286.924 178.127C286.499 178.304 286.043 178.394 285.583 178.394H245.222C244.585 178.393 243.961 178.221 243.415 177.894C242.869 177.568 242.421 177.1 242.119 176.539C241.959 176.21 241.712 175.932 241.404 175.733C241.096 175.535 240.74 175.425 240.374 175.415H228.016Z" fill="#EBEBEB"/>
<path d="M316.944 162.604H216.861V164.421H316.944V162.604Z" fill="#F0F0F0"/>
<path d="M191.223 164.422H216.861V162.604H191.223V164.422Z" fill="#E6E6E6"/>
<path d="M295.154 57.6371H209.284V142.865H295.154V57.6371Z" fill="#E6E6E6"/>
<path d="M299.789 57.6371H210.16V142.865H299.789V57.6371Z" fill="#F0F0F0"/>
<path d="M295.65 138.733V61.7762L214.299 61.7762V138.733H295.65Z" fill="white"/>
<path d="M254.974 131.936C248.708 131.936 242.583 130.078 237.373 126.597C232.163 123.116 228.102 118.168 225.704 112.379C223.306 106.59 222.679 100.219 223.901 94.0736C225.124 87.9279 228.141 82.2827 232.572 77.8519C237.003 73.4211 242.648 70.4037 248.794 69.1813C254.939 67.9588 261.309 68.5862 267.099 70.9841C272.888 73.3821 277.836 77.4428 281.317 82.6529C284.798 87.863 286.656 93.9884 286.656 100.254C286.647 108.654 283.306 116.707 277.366 122.646C271.427 128.586 263.374 131.927 254.974 131.936ZM254.974 69.12C248.817 69.12 242.797 70.946 237.677 74.3671C232.557 77.7882 228.566 82.6508 226.21 88.3398C223.853 94.0289 223.237 100.289 224.438 106.329C225.639 112.368 228.605 117.916 232.959 122.27C237.313 126.624 242.861 129.589 248.9 130.791C254.94 131.992 261.2 131.376 266.889 129.019C272.578 126.663 277.441 122.672 280.862 117.552C284.283 112.432 286.109 106.412 286.109 100.254C286.101 91.9995 282.818 84.0848 276.981 78.2476C271.144 72.4104 263.229 69.1277 254.974 69.12Z" fill="#F5F5F5"/>
<path d="M182.5 312.619C260.67 312.619 324.04 308.919 324.04 304.355C324.04 299.791 260.67 296.092 182.5 296.092C104.33 296.092 40.9603 299.791 40.9603 304.355C40.9603 308.919 104.33 312.619 182.5 312.619Z" fill="#F5F5F5"/>
<path d="M49.4794 262.993H228.249L241.097 151.778H62.3347L49.4794 262.993Z" fill="#9713CA"/>
<path opacity="0.4" d="M49.4794 262.993H228.249L241.097 151.778H62.3347L49.4794 262.993Z" fill="white"/>
<path d="M263.362 267.162H84.5924L62.3347 151.778H241.097L263.362 267.162Z" fill="#9713CA"/>
<path opacity="0.6" d="M263.362 267.162H84.5924L62.3347 151.778H241.097L263.362 267.162Z" fill="white"/>
<path d="M256.515 260.971H89.0454L71.0655 167.743H238.535L256.515 260.971Z" fill="white"/>
<g opacity="0.5">
<path d="M102.083 190.351H84.5705L81.1906 172.831H98.7033L102.083 190.351Z" fill="#9713CA"/>
<path d="M233.753 190.351H216.233L212.861 172.831H230.373L233.753 190.351Z" fill="#9713CA"/>
<path d="M211.802 190.351H194.29L190.91 172.831H208.43L211.802 190.351Z" fill="#9713CA"/>
<path d="M189.858 190.351H172.346L168.966 172.831H186.486L189.858 190.351Z" fill="#9713CA"/>
<path d="M167.915 190.351H150.402L147.022 172.831H164.535L167.915 190.351Z" fill="#9713CA"/>
<path d="M145.971 190.351H128.458L125.078 172.831H142.591L145.971 190.351Z" fill="#9713CA"/>
<path d="M124.027 190.351H106.514L103.134 172.831H120.647L124.027 190.351Z" fill="#9713CA"/>
<path opacity="0.5" d="M106.295 212.193H88.7826L85.4027 194.68H102.915L106.295 212.193Z" fill="#9713CA"/>
<path d="M237.965 212.193H220.453L217.073 194.68H234.586L237.965 212.193Z" fill="#9713CA"/>
<path opacity="0.5" d="M216.022 212.193H198.509L195.129 194.68H212.642L216.022 212.193Z" fill="#9713CA"/>
<path d="M194.078 212.193H176.558L173.185 194.68H190.698L194.078 212.193Z" fill="#9713CA"/>
<path d="M172.127 212.193H154.614L151.234 194.68H168.754L172.127 212.193Z" fill="#9713CA"/>
<path d="M150.183 212.193H132.67L129.29 194.68H146.803L150.183 212.193Z" fill="#9713CA"/>
<path d="M128.239 212.193H110.726L107.347 194.68H124.859L128.239 212.193Z" fill="#9713CA"/>
<path d="M110.507 234.034H92.9947L89.6148 216.522H107.128L110.507 234.034Z" fill="#9713CA"/>
<path d="M242.178 234.034H224.665L221.285 216.522H238.798L242.178 234.034Z" fill="#9713CA"/>
<path d="M220.234 234.034H202.721L199.341 216.522H216.854L220.234 234.034Z" fill="#9713CA"/>
<path d="M198.29 234.034H180.777L177.397 216.522H194.91L198.29 234.034Z" fill="#9713CA"/>
<path d="M176.346 234.034H158.826L155.453 216.522H172.966L176.346 234.034Z" fill="#9713CA"/>
<path d="M154.395 234.034H136.882L133.502 216.522H151.022L154.395 234.034Z" fill="#9713CA"/>
<path d="M132.451 234.034H114.939L111.559 216.522H129.071L132.451 234.034Z" fill="#9713CA"/>
<path d="M114.72 255.883H97.2068L93.8269 238.363H111.347L114.72 255.883Z" fill="#9713CA"/>
<path d="M246.39 255.883H228.877L225.497 238.363H243.01L246.39 255.883Z" fill="#9713CA"/>
<path d="M224.446 255.883H206.933L203.553 238.363H221.066L224.446 255.883Z" fill="#9713CA"/>
<path d="M202.502 255.883H184.989L181.609 238.363H199.122L202.502 255.883Z" fill="#9713CA"/>
<path d="M180.558 255.883H163.045L159.666 238.363H177.178L180.558 255.883Z" fill="#9713CA"/>
<path d="M158.614 255.883H141.094L137.722 238.363H155.234L158.614 255.883Z" fill="#9713CA"/>
<path opacity="0.5" d="M136.671 255.883H119.151L115.778 238.363H133.291L136.671 255.883Z" fill="#9713CA"/>
</g>
<path d="M84.3807 159.698L84.1544 158.538C86.2203 158.538 87.3737 155.443 86.6656 151.778C85.9575 148.113 83.6142 145.011 81.5556 145.011C79.497 145.011 78.3363 148.113 79.0371 151.778H77.8837C77.0223 147.332 78.5407 143.857 81.3293 143.857C84.1179 143.857 86.9795 147.332 87.8336 151.778C88.6877 156.224 87.1693 159.698 84.3807 159.698Z" fill="#263238"/>
<path d="M101.667 159.698L101.441 158.538C103.507 158.538 104.66 155.443 103.952 151.778C103.244 148.113 100.901 145.011 98.842 145.011C96.7834 145.011 95.6227 148.113 96.3235 151.778H95.1701C94.3087 147.332 95.8271 143.857 98.6157 143.857C101.404 143.857 104.266 147.332 105.12 151.778C105.974 156.224 104.456 159.698 101.667 159.698Z" fill="#263238"/>
<path d="M118.99 159.698L118.764 158.538C120.83 158.538 121.983 155.443 121.275 151.778C120.567 148.113 118.223 145.011 116.165 145.011C114.106 145.011 112.938 148.113 113.646 151.778H112.42C111.559 147.332 113.077 143.857 115.866 143.857C118.654 143.857 121.516 147.332 122.37 151.778C123.224 156.224 121.742 159.698 118.99 159.698Z" fill="#263238"/>
<path d="M136.233 159.698L136.014 158.538C138.08 158.538 139.233 155.443 138.525 151.778C137.817 148.113 135.473 145.011 133.415 145.011C131.356 145.011 130.196 148.113 130.904 151.778H129.743C128.889 147.332 130.407 143.857 133.196 143.857C135.984 143.857 138.839 147.332 139.7 151.778C140.562 156.224 139.029 159.698 136.233 159.698Z" fill="#263238"/>
<path d="M153.519 159.698L153.3 158.538C155.366 158.538 156.519 155.443 155.811 151.778C155.103 148.113 152.76 145.011 150.701 145.011C148.643 145.011 147.482 148.113 148.19 151.778H147.029C146.175 147.332 147.694 143.857 150.482 143.857C153.271 143.857 156.125 147.332 156.986 151.778C157.848 156.224 156.315 159.698 153.519 159.698Z" fill="#263238"/>
<path d="M170.82 159.698L170.601 158.538C172.667 158.538 173.82 155.443 173.112 151.778C172.404 148.113 170.061 145.011 168.002 145.011C165.944 145.011 164.783 148.113 165.491 151.778H164.33C163.476 147.332 164.987 143.857 167.783 143.857C170.579 143.857 173.426 147.332 174.287 151.778C175.149 156.224 173.601 159.698 170.82 159.698Z" fill="#263238"/>
<path d="M188.092 159.698L187.873 158.538C189.939 158.538 191.092 155.443 190.384 151.778C189.676 148.113 187.333 145.011 185.274 145.011C183.215 145.011 182.055 148.113 182.763 151.778H181.602C180.748 147.332 182.259 143.857 185.055 143.857C187.851 143.857 190.698 147.332 191.559 151.778C192.421 156.224 190.888 159.698 188.092 159.698Z" fill="#263238"/>
<path d="M205.378 159.698L205.159 158.538C207.225 158.538 208.378 155.443 207.67 151.778C206.962 148.113 204.619 145.011 202.56 145.011C200.502 145.011 199.341 148.113 200.049 151.778H198.888C198.034 147.332 199.545 143.857 202.341 143.857C205.137 143.857 207.984 147.332 208.846 151.778C209.707 156.224 208.167 159.698 205.378 159.698Z" fill="#263238"/>
<path d="M222.65 159.698L222.431 158.538C224.497 158.538 225.65 155.443 224.942 151.778C224.234 148.113 221.891 145.011 219.832 145.011C217.774 145.011 216.613 148.113 217.321 151.778H216.16C215.306 147.332 216.817 143.857 219.613 143.857C222.409 143.857 225.256 147.332 226.11 151.778C226.964 156.224 225.453 159.698 222.65 159.698Z" fill="#263238"/>
<path d="M147.964 187.884H86.5561L83.1762 170.371H144.584L147.964 187.884Z" fill="#9713CA"/>
<path d="M174.134 209.733H156.614L153.242 192.213H170.754L174.134 209.733Z" fill="#9713CA"/>
<path d="M228.928 232.158L227.979 231.333C226.031 229.628 223.863 228.191 221.533 227.063L222.139 225.274C224.309 226.324 226.352 227.62 228.227 229.136C231.46 224.341 235.694 220.304 240.637 217.303L241.944 219.084C236.912 222.141 232.651 226.315 229.49 231.282L228.928 232.158Z" fill="#9713CA"/>
<path d="M167.71 195.111H166.126L163.476 199.907L158.987 195.111H157.403L162.892 200.973L159.658 206.827H161.25L163.892 202.038L168.382 206.827H169.973L164.476 200.973L167.71 195.111Z" fill="white"/>
<path d="M200.173 237.064L203.093 252.255H187.909L184.989 237.064H200.181M201.122 235.903H183.602L186.982 253.423H204.502L201.13 235.903H201.122Z" fill="#9713CA"/>
<path d="M156.388 231.574H116.931L113.552 214.062H153.008L156.388 231.574Z" fill="#263238"/>
<path d="M129.21 221.048C129.315 221.454 129.324 221.88 129.235 222.291C129.146 222.702 128.962 223.086 128.698 223.413C128.434 223.74 128.098 224.001 127.715 224.174C127.332 224.348 126.914 224.43 126.494 224.413C125.546 224.378 124.637 224.028 123.91 223.418C123.183 222.809 122.68 221.975 122.479 221.048C122.376 220.641 122.369 220.216 122.458 219.806C122.548 219.396 122.731 219.012 122.995 218.685C123.259 218.359 123.595 218.098 123.977 217.924C124.358 217.75 124.776 217.667 125.195 217.682C126.143 217.719 127.051 218.069 127.778 218.678C128.505 219.288 129.008 220.121 129.21 221.048Z" fill="white"/>
<path d="M130.02 224.23C129.649 224.747 129.156 225.163 128.586 225.445C128.016 225.726 127.385 225.863 126.75 225.844C125.301 225.809 123.917 225.236 122.866 224.238C122.216 224.589 121.694 225.137 121.374 225.803C121.054 226.469 120.953 227.219 121.085 227.946H133.232C133.013 227.124 132.609 226.363 132.053 225.719C131.497 225.076 130.802 224.567 130.02 224.23Z" fill="white"/>
<path d="M149.811 221.727H136.379L136.006 219.792H149.438L149.811 221.727Z" fill="white"/>
<path d="M146.11 225.836H137.174L136.802 223.902H145.737L146.11 225.836Z" fill="white"/>
<path d="M216.635 172.006C220.095 172.006 224.993 172.51 228.694 174.926C229.367 175.323 229.953 175.85 230.418 176.477C230.883 177.104 231.218 177.818 231.403 178.576C232.052 181.445 230.527 184.577 228.84 186.278C226.176 188.964 222.03 190.658 217.16 190.994C216.606 191.037 216.036 191.059 215.474 191.059C212.046 191.029 208.653 190.356 205.473 189.074C202.341 187.825 199.02 186.154 198.086 182.898C197.842 182.148 197.767 181.353 197.867 180.57C197.966 179.788 198.238 179.037 198.662 178.372C199.214 177.528 199.944 176.815 200.801 176.284C204.846 173.782 209.455 172.339 214.204 172.087C215.014 172.035 215.832 172.006 216.635 172.006ZM216.416 170.882C215.547 170.882 214.708 170.882 213.919 170.97C209.005 171.228 204.235 172.719 200.049 175.306C199.087 175.905 198.267 176.707 197.648 177.656C197.152 178.446 196.836 179.334 196.722 180.258C196.607 181.183 196.696 182.121 196.983 183.007C198.078 186.789 201.823 188.752 205.225 190.103C208.55 191.447 212.099 192.15 215.686 192.176C216.277 192.176 216.861 192.176 217.445 192.118C222.073 191.782 226.687 190.205 229.724 187.139C232.761 184.073 234.695 177.569 229.184 173.999C225.468 171.597 220.606 170.882 216.409 170.882H216.416Z" fill="#263238"/>
<path d="M282.525 299.187L287.751 297.8L285.204 285.507L279.977 286.901L282.525 299.187Z" fill="#B55B52"/>
<path d="M287.919 296.836L282.145 298.734C282.046 298.761 281.963 298.827 281.912 298.916C281.861 299.005 281.848 299.11 281.875 299.209L283.101 303.873C283.178 304.114 283.348 304.314 283.572 304.431C283.796 304.547 284.057 304.57 284.299 304.494C286.299 303.764 287.219 303.362 289.759 302.53C291.321 302.012 295.103 300.851 297.256 300.143C299.41 299.435 298.658 297.325 297.679 297.427C293.299 297.909 290.737 297.522 288.919 296.865C288.599 296.741 288.246 296.731 287.919 296.836Z" fill="#263238"/>
<path opacity="0.2" d="M279.977 286.901L285.204 285.507L286.518 291.843L281.284 293.237L279.977 286.901Z" fill="black"/>
<path d="M266.574 161.626C266.574 161.626 273.874 205.681 276.064 221.048C278.437 237.874 287.321 288.492 287.321 288.492L278.561 291.806C278.561 291.806 264.581 242.042 260.72 225.683C256.522 207.922 247.28 161.626 247.28 161.626H266.574Z" fill="#263238"/>
<path opacity="0.3" d="M254.843 179.693C258.581 189.03 259.004 204.9 257.486 211.404C255.193 200.724 252.565 187.949 250.543 178.014C251.266 175.466 252.58 174.014 254.843 179.693Z" fill="black"/>
<path d="M278.166 293.048L288.335 289.996L288.043 285.835L275.94 289.376L278.166 293.048Z" fill="#263238"/>
<path d="M290.036 297.135C289.56 297.275 289.071 297.363 288.576 297.398C288.552 297.4 288.528 297.396 288.507 297.385C288.485 297.375 288.466 297.36 288.452 297.34C288.44 297.319 288.434 297.295 288.434 297.271C288.434 297.246 288.44 297.222 288.452 297.201C288.576 297.033 289.708 295.559 290.416 295.595C290.496 295.601 290.573 295.627 290.641 295.67C290.708 295.714 290.764 295.773 290.803 295.843C290.882 295.946 290.93 296.07 290.941 296.199C290.953 296.328 290.928 296.458 290.868 296.573C290.666 296.853 290.371 297.052 290.036 297.135ZM288.876 297.135C289.861 297.011 290.525 296.763 290.686 296.449C290.718 296.375 290.73 296.293 290.721 296.213C290.712 296.132 290.683 296.055 290.635 295.989C290.616 295.954 290.589 295.924 290.556 295.903C290.523 295.881 290.485 295.868 290.445 295.865C290.065 295.829 289.35 296.544 288.876 297.121V297.135Z" fill="#9713CA"/>
<path d="M288.635 297.391C288.616 297.398 288.595 297.398 288.576 297.391C288.556 297.388 288.536 297.379 288.519 297.367C288.503 297.354 288.49 297.337 288.481 297.318C288.481 297.252 287.854 295.814 288.204 295.128C288.25 295.042 288.315 294.968 288.393 294.91C288.471 294.852 288.561 294.812 288.657 294.792C288.761 294.762 288.873 294.768 288.973 294.809C289.074 294.85 289.158 294.924 289.211 295.018C289.518 295.537 289.102 296.865 288.693 297.333C288.671 297.376 288.657 297.391 288.635 297.391ZM288.635 295.077C288.541 295.111 288.463 295.178 288.416 295.267C288.293 295.854 288.362 296.466 288.613 297.011C288.969 296.466 289.099 295.804 288.978 295.164C288.941 295.099 288.876 295.026 288.693 295.062L288.635 295.077Z" fill="#9713CA"/>
<path d="M265.464 116.271C265.676 116.614 265.968 117.096 266.238 117.512L267.07 118.826C267.647 119.694 268.217 120.563 268.822 121.417C270.012 123.118 271.268 124.768 272.567 126.337C273.835 127.872 275.206 129.318 276.67 130.666C277.994 131.903 279.465 132.972 281.05 133.849L279.897 133.521C281.027 133.753 282.185 133.819 283.335 133.718C283.963 133.659 284.605 133.579 285.262 133.462C285.919 133.345 286.583 133.185 287.255 133.002C288.637 132.626 289.995 132.165 291.321 131.623C292 131.345 292.679 131.06 293.358 130.754C294.037 130.447 294.73 130.104 295.321 129.827L295.519 129.732C296.085 129.461 296.736 129.425 297.328 129.633C297.921 129.841 298.407 130.276 298.679 130.841C298.884 131.277 298.952 131.765 298.875 132.24C298.799 132.716 298.58 133.157 298.249 133.506C297.584 134.192 297.001 134.74 296.344 135.316C295.687 135.893 295.03 136.404 294.336 136.915C292.924 137.946 291.43 138.859 289.868 139.645C288.22 140.473 286.484 141.112 284.693 141.551C283.731 141.772 282.755 141.93 281.773 142.025C280.74 142.113 279.703 142.113 278.67 142.025C278.377 141.996 278.089 141.925 277.816 141.813L277.524 141.689C275.112 140.645 272.858 139.266 270.83 137.594C268.907 136.043 267.117 134.334 265.479 132.484C263.879 130.712 262.383 128.85 260.997 126.907C260.311 125.933 259.649 124.96 259.011 123.987C258.697 123.483 258.383 122.987 258.077 122.468C257.77 121.95 257.493 121.468 257.157 120.84C256.536 119.748 256.374 118.453 256.707 117.24C257.04 116.028 257.842 114.998 258.935 114.376C260.028 113.755 261.323 113.593 262.535 113.926C263.747 114.26 264.777 115.061 265.399 116.154L265.464 116.271Z" fill="#263238"/>
<path opacity="0.3" d="M269.961 129.622C267.114 123.782 262.26 124.118 260.303 125.921L260.858 126.732C262.183 128.61 263.611 130.413 265.136 132.134C266.697 133.902 268.385 135.554 270.188 137.076C270.757 137.543 271.348 138.003 271.947 138.441C271.866 135.4 271.191 132.405 269.961 129.622Z" fill="black"/>
<path d="M296.942 128.98L300.592 125.936L302.782 130.659C302.782 130.659 297.344 134.55 296.095 133.177L295.949 131.418C295.908 130.962 295.977 130.503 296.15 130.078C296.322 129.654 296.594 129.278 296.942 128.98Z" fill="#FFBE9D"/>
<path d="M305.461 126.513L306.607 130.163L302.753 130.637L300.578 125.914L305.461 126.513Z" fill="#FFBE9D"/>
<path d="M236.797 299.012H242.207L242.908 286.477H237.498L236.797 299.012Z" fill="#B55B52"/>
<path d="M242.491 298.384H236.411C236.36 298.382 236.309 298.39 236.261 298.408C236.214 298.425 236.17 298.452 236.133 298.487C236.095 298.521 236.065 298.563 236.044 298.609C236.023 298.655 236.011 298.705 236.009 298.756L235.71 303.567C235.71 303.82 235.809 304.063 235.987 304.243C236.164 304.423 236.406 304.527 236.659 304.53C238.776 304.494 239.79 304.37 242.462 304.37C244.105 304.37 248.638 304.538 250.908 304.538C253.179 304.538 253.098 302.289 252.157 302.085C247.835 301.18 244.952 299.895 243.397 298.72C243.142 298.508 242.822 298.39 242.491 298.384Z" fill="#263238"/>
<path opacity="0.2" d="M237.498 286.485H242.908L242.543 292.945H237.133L237.498 286.485Z" fill="black"/>
<path d="M256.004 161.626C256.004 161.626 255.537 208.645 254.661 224.143C253.697 241.108 244.864 291.383 244.864 291.383H234.951C234.951 291.383 239.272 242.473 238.674 225.683C238.024 207.433 237.63 161.626 237.63 161.626H256.004Z" fill="#263238"/>
<path d="M234.155 291.383H246.244L246.835 287.624L233.644 288.208L234.155 291.383Z" fill="#263238"/>
<path d="M244.404 299.326C243.912 299.314 243.423 299.251 242.944 299.136C242.92 299.131 242.897 299.119 242.88 299.102C242.862 299.084 242.85 299.062 242.845 299.037C242.841 299.013 242.843 298.988 242.853 298.965C242.863 298.942 242.879 298.923 242.9 298.909C243.075 298.785 244.601 297.741 245.265 298.004C245.34 298.033 245.406 298.08 245.457 298.141C245.508 298.203 245.543 298.276 245.557 298.355C245.592 298.473 245.596 298.597 245.569 298.717C245.542 298.837 245.485 298.949 245.404 299.041C245.117 299.255 244.761 299.357 244.404 299.326ZM243.309 298.953C244.28 299.143 244.995 299.114 245.244 298.866C245.299 298.806 245.336 298.732 245.353 298.652C245.37 298.573 245.365 298.49 245.338 298.413C245.333 298.373 245.316 298.336 245.29 298.305C245.264 298.274 245.23 298.251 245.192 298.238C244.842 298.099 243.937 298.552 243.309 298.953Z" fill="#9713CA"/>
<path d="M242.995 299.136C242.976 299.143 242.955 299.143 242.937 299.136C242.917 299.126 242.901 299.112 242.89 299.094C242.878 299.076 242.872 299.055 242.871 299.034C242.871 298.968 242.74 297.413 243.287 296.887C243.357 296.82 243.441 296.77 243.534 296.739C243.626 296.709 243.724 296.7 243.82 296.712C243.928 296.716 244.031 296.755 244.114 296.824C244.198 296.892 244.256 296.987 244.28 297.092C244.404 297.683 243.594 298.815 243.061 299.136C243.039 299.142 243.016 299.142 242.995 299.136ZM243.725 296.946C243.624 296.946 243.527 296.985 243.455 297.055C243.155 297.574 243.029 298.175 243.097 298.771C243.572 298.377 244.105 297.515 244.024 297.128C244.024 297.055 243.966 296.968 243.784 296.946H243.725Z" fill="#9713CA"/>
<path d="M264.296 117.658C264.024 116.745 263.508 115.923 262.805 115.28C262.102 114.638 261.237 114.198 260.303 114.008C258.969 113.692 257.616 113.461 256.252 113.314C252.155 113.08 248.048 113.08 243.951 113.314C241.805 113.416 239.615 113.679 237.87 113.935H237.805C237.346 113.999 236.905 114.155 236.508 114.394C236.111 114.632 235.766 114.948 235.493 115.323C235.221 115.698 235.027 116.123 234.922 116.574C234.818 117.026 234.805 117.493 234.885 117.95C236.26 125.21 237.159 132.552 237.579 139.93C238.002 150.639 237.425 159.049 237.63 161.633H266.574C268.333 135.492 266.063 123.614 264.296 117.658Z" fill="#E6E6E6"/>
<path d="M244.769 112.832C247.047 122.074 249.149 145.493 249.113 163.801H236.878C236.659 161.071 237.272 152.209 236.827 140.915C236.388 133.152 235.449 125.425 234.016 117.782C233.933 117.303 233.946 116.812 234.055 116.338C234.164 115.864 234.367 115.417 234.651 115.023C234.935 114.628 235.295 114.295 235.71 114.042C236.125 113.788 236.587 113.62 237.068 113.548H237.133C238.973 113.278 241.28 113 243.543 112.891L244.769 112.832Z" fill="#263238"/>
<path d="M265.786 117.789C265.474 116.78 264.907 115.869 264.14 115.144C263.373 114.418 262.431 113.904 261.406 113.65C259.471 113.346 257.522 113.146 255.566 113.051C257.88 121.081 262.42 145.544 261.07 163.801H268.793C270.626 136.404 267.509 122.797 265.786 117.789Z" fill="#263238"/>
<path d="M310.9 143.098L253.31 167.743L246.39 151.654L303.987 127.009L310.9 143.098Z" fill="#9713CA"/>
<path d="M262.296 152.449C262.558 153.061 262.633 153.737 262.511 154.391C262.389 155.045 262.076 155.648 261.611 156.124C261.147 156.601 260.551 156.928 259.901 157.066C259.25 157.204 258.573 157.146 257.955 156.899C257.337 156.653 256.806 156.228 256.429 155.68C256.052 155.132 255.846 154.484 255.838 153.819C255.829 153.153 256.018 152.5 256.38 151.942C256.742 151.384 257.261 150.946 257.873 150.683C258.279 150.508 258.716 150.415 259.158 150.409C259.601 150.403 260.04 150.485 260.451 150.649C260.862 150.813 261.236 151.056 261.553 151.365C261.87 151.674 262.122 152.043 262.296 152.449Z" fill="white"/>
<path d="M263.749 155.296C263.535 155.937 263.188 156.524 262.73 157.021C262.273 157.517 261.716 157.912 261.095 158.178C260.475 158.444 259.805 158.576 259.13 158.565C258.456 158.554 257.79 158.4 257.179 158.114C256.661 158.703 256.31 159.42 256.164 160.19C256.018 160.961 256.081 161.757 256.347 162.494L267.516 157.72C267.164 157.015 266.629 156.417 265.966 155.99C265.303 155.564 264.537 155.324 263.749 155.296Z" fill="white"/>
<path d="M302.709 135.9L269.049 150.303L268.29 148.522L301.95 134.119L302.709 135.9Z" fill="white"/>
<path d="M300.205 141.441L270.677 154.077L269.91 152.296L299.439 139.66L300.205 141.441Z" fill="white"/>
<path opacity="0.3" d="M240.659 127.155C240.455 121.016 235.921 118.672 234.644 120.322C234.588 120.389 234.536 120.46 234.491 120.534C235.286 125.264 236.257 131.776 236.681 138.193C238.834 136.952 240.849 132.988 240.659 127.155Z" fill="black"/>
<path d="M255.668 113.3C252.091 112.453 251.463 110.241 251.704 107.81C251.761 107.201 251.856 106.596 251.989 106L247.506 102.277L244.214 99.5464C245.127 103.51 246.156 110.73 243.484 113.373C243.484 113.373 245.674 117.023 251.828 116.701C256.96 116.417 255.668 113.3 255.668 113.3Z" fill="#FFBE9D"/>
<path d="M249.368 119.964C249.791 118.748 250.479 117.641 251.383 116.723C248.635 115.822 246.136 114.292 244.083 112.256L242.207 112.986C242.207 112.986 242.871 117.753 249.368 119.964Z" fill="white"/>
<path d="M254.376 119.147C253.563 118.134 252.543 117.307 251.383 116.723C253.186 116.212 253.887 112.555 253.887 112.555L255.646 112.92C255.646 112.92 258.895 117.687 254.376 119.147Z" fill="white"/>
<path opacity="0.2" d="M251.989 106C251.856 106.596 251.761 107.201 251.704 107.81C250.032 107.474 247.799 105.693 247.565 103.985C247.483 103.419 247.463 102.846 247.507 102.277L251.989 106Z" fill="black"/>
<path d="M254.076 86.5305C256.332 86.1217 258.96 88.4869 257.726 93.2903C256.493 98.0937 250.631 87.151 254.076 86.5305Z" fill="#263238"/>
<path d="M242.856 93.8451C244.002 99.1084 244.404 102.24 247.514 104.642C248.516 105.432 249.715 105.934 250.981 106.092C252.248 106.251 253.533 106.06 254.699 105.54C255.865 105.021 256.866 104.193 257.596 103.145C258.325 102.098 258.754 100.871 258.836 99.5975C259.245 94.6992 257.31 86.9174 251.77 85.4282C250.579 85.0734 249.317 85.0379 248.108 85.3254C246.9 85.6128 245.788 86.213 244.885 87.0658C243.982 87.9186 243.319 88.9939 242.963 90.1838C242.607 91.3737 242.57 92.6364 242.856 93.8451Z" fill="#FFBE9D"/>
<path d="M244.973 99.5464C245.747 97.7214 246.433 92.6406 245.806 90.5309C248.324 90.4506 253.617 89.9834 255.821 87.5306C259.208 83.7638 254.741 79.3108 249.12 82.8586C245.47 85.1435 237.593 84.6909 238.9 87.2386C235.06 91.4653 239.374 96.2395 244.973 99.5464Z" fill="#263238"/>
<path d="M238.893 87.4284C238.866 87.4282 238.84 87.4222 238.816 87.4108C238.792 87.3995 238.771 87.383 238.754 87.3627C238.287 86.786 238.141 86.3042 238.301 85.9027C238.688 84.9391 240.696 84.6763 243.01 84.3843C245.2 84.1069 247.623 83.793 248.397 82.8075C248.432 82.7757 248.478 82.7581 248.525 82.7581C248.572 82.7581 248.618 82.7757 248.653 82.8075C248.67 82.8239 248.684 82.8437 248.694 82.8656C248.703 82.8876 248.708 82.9113 248.708 82.9352C248.708 82.9592 248.703 82.9829 248.694 83.0048C248.684 83.0268 248.67 83.0466 248.653 83.063C247.784 84.1653 245.368 84.4719 243.032 84.7712C241.01 85.034 238.922 85.2968 238.652 86.0706C238.542 86.348 238.652 86.7203 239.039 87.1802C239.072 87.2143 239.091 87.2602 239.091 87.3079C239.091 87.3557 239.072 87.4016 239.039 87.4357C238.99 87.45 238.939 87.4475 238.893 87.4284Z" fill="#263238"/>
<path d="M242.046 98.0937C242.674 99.0766 243.624 99.8117 244.732 100.174C246.141 100.598 246.623 99.2982 246.054 97.9258C245.535 96.6848 244.178 94.9693 242.856 95.1518C241.535 95.3343 241.25 96.86 242.046 98.0937Z" fill="#FFBE9D"/>
<path d="M250.39 94.3707C250.456 94.8014 250.74 95.1007 251.025 95.1007C251.31 95.1007 251.478 94.6919 251.412 94.2612C251.346 93.8305 251.062 93.5312 250.777 93.5312C250.492 93.5312 250.324 93.94 250.39 94.3707Z" fill="#263238"/>
<path d="M255.288 93.7867C255.354 94.2174 255.639 94.5167 255.923 94.5167C256.208 94.5167 256.383 94.1006 256.31 93.6699C256.237 93.2392 255.96 92.9399 255.683 92.9399C255.405 92.9399 255.223 93.356 255.288 93.7867Z" fill="#263238"/>
<path d="M254.536 94.1882C255.261 95.4488 256.149 96.6075 257.179 97.6338C256.91 97.88 256.59 98.064 256.242 98.1725C255.893 98.281 255.526 98.3114 255.164 98.2616L254.536 94.1882Z" fill="#482F2E"/>
<path d="M253.573 99.6413C253.066 99.6481 252.564 99.552 252.096 99.3587C251.628 99.1655 251.204 98.8791 250.85 98.5171C250.839 98.5046 250.83 98.4901 250.825 98.4744C250.82 98.4586 250.817 98.442 250.818 98.4254C250.819 98.4088 250.824 98.3925 250.831 98.3776C250.838 98.3626 250.848 98.3492 250.861 98.3382C250.873 98.3272 250.888 98.3187 250.904 98.3133C250.919 98.3079 250.936 98.3056 250.953 98.3067C250.969 98.3077 250.985 98.312 251 98.3193C251.015 98.3265 251.029 98.3367 251.04 98.3492C251.433 98.7325 251.908 99.0222 252.428 99.1966C252.949 99.3711 253.503 99.4257 254.047 99.3566C254.064 99.3535 254.082 99.3539 254.098 99.3578C254.115 99.3617 254.131 99.369 254.144 99.3793C254.158 99.3896 254.169 99.4026 254.178 99.4176C254.186 99.4325 254.192 99.449 254.193 99.4661C254.195 99.4824 254.194 99.4989 254.19 99.5148C254.185 99.5306 254.178 99.5454 254.168 99.5583C254.157 99.5712 254.145 99.582 254.13 99.59C254.116 99.5979 254.1 99.603 254.084 99.6048C253.914 99.6273 253.744 99.6395 253.573 99.6413Z" fill="#263238"/>
<path d="M248.791 92.9764C248.748 92.9734 248.705 92.9609 248.667 92.9399C248.638 92.9232 248.612 92.9009 248.591 92.8742C248.571 92.8476 248.556 92.817 248.547 92.7845C248.538 92.7519 248.536 92.7179 248.54 92.6844C248.544 92.6509 248.555 92.6187 248.572 92.5895C248.761 92.2337 249.034 91.9297 249.367 91.7044C249.701 91.4791 250.085 91.3393 250.485 91.2974C250.519 91.2954 250.552 91.3001 250.584 91.3111C250.616 91.3222 250.645 91.3394 250.67 91.3618C250.695 91.3841 250.716 91.4113 250.73 91.4415C250.745 91.4718 250.753 91.5047 250.755 91.5383C250.757 91.5718 250.752 91.6055 250.741 91.6372C250.73 91.669 250.713 91.6982 250.691 91.7233C250.668 91.7484 250.641 91.7689 250.611 91.7835C250.581 91.798 250.548 91.8065 250.514 91.8084C250.199 91.8457 249.898 91.9597 249.637 92.1404C249.376 92.3212 249.163 92.5631 249.018 92.845C248.995 92.8852 248.962 92.9187 248.923 92.9418C248.883 92.965 248.837 92.9769 248.791 92.9764Z" fill="#263238"/>
<path d="M257.486 91.8595C257.443 91.8597 257.402 91.849 257.365 91.8286C257.328 91.8082 257.296 91.7786 257.274 91.7427C257.097 91.4666 256.858 91.2348 256.577 91.0653C256.296 90.8957 255.98 90.7928 255.653 90.7645C255.586 90.7645 255.521 90.7376 255.473 90.6896C255.425 90.6417 255.398 90.5767 255.398 90.509C255.398 90.4412 255.425 90.3762 255.473 90.3283C255.521 90.2804 255.586 90.2535 255.653 90.2535C256.064 90.2822 256.463 90.4059 256.817 90.6149C257.172 90.824 257.473 91.1126 257.697 91.458C257.734 91.5154 257.747 91.5848 257.733 91.6516C257.719 91.7183 257.68 91.7771 257.624 91.8157C257.583 91.8434 257.535 91.8586 257.486 91.8595Z" fill="#263238"/>
<path d="M241.323 121.497L241.272 121.578L241.148 121.782L240.885 122.242C240.703 122.571 240.528 122.906 240.353 123.257C240.017 123.987 239.688 124.717 239.396 125.447C238.813 126.976 238.35 128.547 238.009 130.148C237.331 133.453 237.132 136.838 237.418 140.2C237.457 140.907 237.553 141.61 237.703 142.302C237.869 143.002 238.101 143.684 238.396 144.339C239.073 145.837 239.902 147.26 240.871 148.588C243.003 151.471 245.387 154.158 247.996 156.618L248.098 156.72C248.504 157.115 248.755 157.642 248.805 158.206C248.856 158.77 248.702 159.333 248.373 159.793C248.043 160.254 247.559 160.58 247.009 160.714C246.459 160.848 245.879 160.781 245.375 160.523C243.544 159.588 241.791 158.506 240.134 157.289C238.447 156.071 236.859 154.724 235.381 153.26C233.814 151.701 232.441 149.958 231.293 148.069C230.663 147.042 230.137 145.953 229.724 144.821C229.321 143.676 229.025 142.495 228.84 141.295C228.462 139.182 228.267 137.04 228.256 134.893C228.223 132.719 228.387 130.547 228.746 128.403C229.107 126.227 229.677 124.09 230.446 122.023C230.839 120.969 231.29 119.939 231.797 118.935C232.06 118.424 232.33 117.92 232.636 117.417C232.79 117.161 232.95 116.906 233.118 116.643L233.388 116.249L233.753 115.745C234.526 114.783 235.643 114.161 236.867 114.009C238.091 113.857 239.327 114.187 240.311 114.931C241.296 115.674 241.952 116.772 242.141 117.991C242.33 119.21 242.037 120.454 241.323 121.461V121.497Z" fill="#263238"/>
<path d="M249.543 156.676L252.558 156.516L249.061 162.356C249.061 162.356 244.185 161.735 244.681 159.246L245.36 158.516C246.471 157.394 247.966 156.736 249.543 156.676Z" fill="#FFBE9D"/>
<path d="M255.683 158.611L253.055 164.816L249.061 162.377L252.558 156.516L255.683 158.611Z" fill="#FFBE9D"/>
</svg>
