<svg width="313" height="314" viewBox="0 0 313 314" fill="none" xmlns="http://www.w3.org/2000/svg">
<path d="M273.812 200.373C273.812 200.373 305.795 164.428 295.629 101.884C285.462 39.3406 233.235 16.2975 198.599 28.3355C163.962 40.3735 156.149 61.3257 127.861 73.3073C99.5716 85.289 45.8169 77.0633 18.9365 117.309C-7.94394 157.554 26.3734 224.242 70.0619 266.059C113.75 307.876 225.235 281.696 273.812 200.373Z" fill="#F0F0F0"/>
<path d="M23.9445 207.841L31.8634 283.7" stroke="#263238" stroke-linecap="round" stroke-linejoin="round"/>
<path d="M30.7303 272.97L27.206 269.258" stroke="#263238" stroke-linecap="round" stroke-linejoin="round"/>
<path d="M28.3703 270.472C28.3619 269.853 28.2213 269.243 27.9579 268.683C27.6945 268.122 27.3143 267.625 26.8429 267.223C25.8601 266.347 20.683 264.168 20.1948 265.971C19.6627 267.975 24.9586 271.868 28.3703 270.472Z" fill="#9713CA" stroke="#263238" stroke-linecap="round" stroke-linejoin="round"/>
<path d="M28.3703 270.472L23.4437 267.405" stroke="#263238" stroke-linecap="round" stroke-linejoin="round"/>
<path d="M31.6067 281.333L28.1637 278.466" stroke="#263238" stroke-linecap="round" stroke-linejoin="round"/>
<path d="M29.3281 279.681C29.3217 279.062 29.1826 278.452 28.9202 277.891C28.6578 277.331 28.2781 276.833 27.8069 276.432C26.8241 275.549 21.6471 273.377 21.1588 275.18C20.6204 277.177 25.9164 281.07 29.3281 279.681Z" fill="#9713CA" stroke="#263238" stroke-linecap="round" stroke-linejoin="round"/>
<path d="M29.3281 279.681L24.4015 276.607" stroke="#263238" stroke-linecap="round" stroke-linejoin="round"/>
<path d="M28.339 249.921L24.8585 246.791" stroke="#263238" stroke-linecap="round" stroke-linejoin="round"/>
<path d="M26.0228 247.993C26.0164 247.374 25.8773 246.764 25.6149 246.203C25.3525 245.643 24.9729 245.145 24.5016 244.744C23.5126 243.867 18.3418 241.689 17.8473 243.492C17.3152 245.489 22.6111 249.395 26.0228 247.993Z" fill="#9713CA" stroke="#263238" stroke-linecap="round" stroke-linejoin="round"/>
<path d="M26.0228 248.005L21.0962 244.938" stroke="#263238" stroke-linecap="round" stroke-linejoin="round"/>
<path d="M29.3093 259.711L25.8225 255.999" stroke="#263238" stroke-linecap="round" stroke-linejoin="round"/>
<path d="M26.9869 257.214C26.9785 256.595 26.8379 255.984 26.5744 255.424C26.311 254.864 25.9308 254.366 25.4594 253.965C24.4766 253.082 19.2996 250.91 18.8113 252.713C18.2792 254.71 23.5752 258.635 26.9869 257.214Z" fill="#9713CA" stroke="#263238" stroke-linecap="round" stroke-linejoin="round"/>
<path d="M26.9869 257.214L22.0602 254.14" stroke="#263238" stroke-linecap="round" stroke-linejoin="round"/>
<path d="M26.7865 235.391L23.2997 231.836" stroke="#263238" stroke-linecap="round" stroke-linejoin="round"/>
<path d="M24.4641 233.05C24.4557 232.431 24.3151 231.821 24.0517 231.26C23.7882 230.7 23.4081 230.203 22.9366 229.801C21.9538 228.918 16.7831 226.746 16.2885 228.549C15.7564 230.546 21.0524 234.44 24.4641 233.05Z" fill="#9713CA" stroke="#263238" stroke-linecap="round" stroke-linejoin="round"/>
<path d="M24.4641 233.05L19.5375 229.976" stroke="#263238" stroke-linecap="round" stroke-linejoin="round"/>
<path d="M25.1089 219.397L21.7285 216.812" stroke="#263238" stroke-linecap="round" stroke-linejoin="round"/>
<path d="M22.8928 218.026C22.8864 217.407 22.7473 216.797 22.4849 216.236C22.2225 215.676 21.8429 215.178 21.3716 214.777C20.3888 213.901 15.2118 211.722 14.7235 213.525C14.1852 215.528 19.4811 219.422 22.8928 218.026Z" fill="#9713CA" stroke="#263238" stroke-linecap="round" stroke-linejoin="round"/>
<path d="M22.8928 218.026L17.9662 214.959" stroke="#263238" stroke-linecap="round" stroke-linejoin="round"/>
<path d="M30.3923 267.856L33.3032 263.111" stroke="#263238" stroke-linecap="round" stroke-linejoin="round"/>
<path d="M32.4143 264.538C32.2958 263.93 32.3077 263.303 32.449 262.7C32.5904 262.097 32.858 261.531 33.2343 261.038C34.0168 259.981 38.6305 256.782 39.4943 258.466C40.4146 260.294 36.0388 265.195 32.4143 264.538Z" fill="#9713CA" stroke="#263238" stroke-linecap="round" stroke-linejoin="round"/>
<path d="M32.4143 264.538L35.8823 261.283" stroke="#263238" stroke-linecap="round" stroke-linejoin="round"/>
<path d="M27.8633 243.629L30.7742 238.878" stroke="#263238" stroke-linecap="round" stroke-linejoin="round"/>
<path d="M29.8852 240.305C29.7653 239.698 29.7764 239.073 29.9178 238.47C30.0592 237.868 30.3277 237.303 30.7053 236.812C31.4878 235.748 35.0873 233.088 35.9512 234.772C36.8839 236.599 33.5098 240.963 29.8852 240.305Z" fill="#9713CA" stroke="#263238" stroke-linecap="round" stroke-linejoin="round"/>
<path d="M29.8852 240.305L34.3236 236.067" stroke="#263238" stroke-linecap="round" stroke-linejoin="round"/>
<path d="M26.749 232.981L29.6661 228.23" stroke="#263238" stroke-linecap="round" stroke-linejoin="round"/>
<path d="M28.796 229.657C28.674 229.05 28.6841 228.424 28.8256 227.821C28.9671 227.218 29.2367 226.653 29.6161 226.164C30.3923 225.1 35.0059 221.907 35.8761 223.585C36.7775 225.413 32.4018 230.314 28.796 229.657Z" fill="#9713CA" stroke="#263238" stroke-linecap="round" stroke-linejoin="round"/>
<path d="M28.7772 229.657L33.2093 225.419" stroke="#263238" stroke-linecap="round" stroke-linejoin="round"/>
<path d="M25.1214 217.369L28.0323 212.624" stroke="#263238" stroke-linecap="round" stroke-linejoin="round"/>
<path d="M27.1434 214.051C27.0234 213.444 27.0345 212.818 27.1759 212.216C27.3174 211.613 27.5858 211.048 27.9634 210.558C28.7459 209.494 33.3595 206.295 34.2234 207.979C35.1499 209.807 30.7679 214.708 27.1434 214.051Z" fill="#9713CA" stroke="#263238" stroke-linecap="round" stroke-linejoin="round"/>
<path d="M27.1434 214.051L31.5817 209.807" stroke="#263238" stroke-linecap="round" stroke-linejoin="round"/>
<path d="M23.8756 207.39C23.7557 206.783 23.7668 206.158 23.9082 205.555C24.0496 204.953 24.3181 204.387 24.6957 203.897C25.4782 202.833 30.0918 199.64 30.9557 201.318C31.8822 203.146 27.5002 208.048 23.8756 207.39Z" fill="#9713CA" stroke="#263238" stroke-linecap="round" stroke-linejoin="round"/>
<path d="M23.8756 207.39L28.314 203.152" stroke="#263238" stroke-linecap="round" stroke-linejoin="round"/>
<path d="M24.1323 207.572C23.5165 207.628 22.8958 207.553 22.3117 207.35C21.7276 207.147 21.1937 206.821 20.7456 206.395C19.7691 205.506 17.071 200.579 18.8363 199.903C20.7519 199.165 25.1715 204.041 24.1323 207.572Z" fill="#9713CA" stroke="#263238" stroke-linecap="round" stroke-linejoin="round"/>
<path d="M24.1323 207.572L20.3826 202.72" stroke="#263238" stroke-linecap="round" stroke-linejoin="round"/>
<path d="M36.6022 186.025V283.512" stroke="#263238" stroke-linecap="round" stroke-linejoin="round"/>
<path d="M46.2301 218.99L39.4943 283.887" stroke="#263238" stroke-linecap="round" stroke-linejoin="round"/>
<path d="M39.607 283.412L37.6602 281.189" stroke="#263238" stroke-linecap="round" stroke-linejoin="round"/>
<path d="M37.6602 281.171C37.7801 280.564 37.769 279.938 37.6276 279.335C37.4862 278.733 37.2177 278.168 36.8401 277.678C36.0576 276.613 31.444 273.421 30.5801 275.105C29.6536 276.951 34.0356 281.853 37.6602 281.171Z" fill="#9713CA" stroke="#263238" stroke-linecap="round" stroke-linejoin="round"/>
<path d="M37.6602 281.189L33.4722 277.171" stroke="#263238" stroke-linecap="round" stroke-linejoin="round"/>
<path d="M41.9796 260.3L39.0937 257.89" stroke="#263238" stroke-linecap="round" stroke-linejoin="round"/>
<path d="M39.9951 258.722C40.1151 258.115 40.1033 257.489 39.9608 256.886C39.8183 256.284 39.5482 255.719 39.1688 255.229C38.3863 254.165 33.7727 250.972 32.9088 252.65C31.9886 254.484 36.3706 259.38 39.9951 258.722Z" fill="#9713CA" stroke="#263238" stroke-linecap="round" stroke-linejoin="round"/>
<path d="M39.9951 258.722L35.8072 254.703" stroke="#263238" stroke-linecap="round" stroke-linejoin="round"/>
<path d="M41.0656 271.249L38.1484 266.503" stroke="#263238" stroke-linecap="round" stroke-linejoin="round"/>
<path d="M39.0374 267.931C39.1573 267.324 39.1462 266.698 39.0048 266.096C38.8634 265.493 38.5949 264.928 38.2173 264.438C37.4348 263.373 32.8212 260.181 31.9573 261.859C31.0308 263.693 35.4128 268.588 39.0374 267.931Z" fill="#9713CA" stroke="#263238" stroke-linecap="round" stroke-linejoin="round"/>
<path d="M39.0374 267.931L34.8494 263.912" stroke="#263238" stroke-linecap="round" stroke-linejoin="round"/>
<path d="M43.4381 245.545L40.6587 242.34" stroke="#263238" stroke-linecap="round" stroke-linejoin="round"/>
<path d="M41.5476 243.761C41.6675 243.153 41.6558 242.527 41.5133 241.925C41.3707 241.322 41.1007 240.757 40.7213 240.268C39.9388 239.21 35.3252 236.011 34.4613 237.695C33.5411 239.523 37.9231 244.424 41.5476 243.761Z" fill="#9713CA" stroke="#263238" stroke-linecap="round" stroke-linejoin="round"/>
<path d="M41.5476 243.761L37.3597 239.748" stroke="#263238" stroke-linecap="round" stroke-linejoin="round"/>
<path d="M44.8967 231.485L42.2174 227.316" stroke="#263238" stroke-linecap="round" stroke-linejoin="round"/>
<path d="M43.1064 228.743C43.2263 228.136 43.2146 227.51 43.072 226.907C42.9295 226.304 42.6594 225.739 42.28 225.25C41.4975 224.186 36.8839 220.993 36.02 222.671C35.0998 224.505 39.4818 229.4 43.1064 228.743Z" fill="#9713CA" stroke="#263238" stroke-linecap="round" stroke-linejoin="round"/>
<path d="M43.1064 228.743L38.9184 224.724" stroke="#263238" stroke-linecap="round" stroke-linejoin="round"/>
<path d="M40.1767 279.048L44.0078 274.998" stroke="#263238" stroke-linecap="round" stroke-linejoin="round"/>
<path d="M42.8434 276.213C42.8498 275.594 42.9889 274.984 43.2513 274.423C43.5138 273.863 43.8934 273.365 44.3646 272.964C45.3474 272.087 50.5245 269.903 51.0127 271.712C51.5511 273.709 46.2551 277.602 42.8434 276.213Z" fill="#9713CA" stroke="#263238" stroke-linecap="round" stroke-linejoin="round"/>
<path d="M42.8434 276.213L48.058 272.976" stroke="#263238" stroke-linecap="round" stroke-linejoin="round"/>
<path d="M42.6932 254.816L46.5181 250.772" stroke="#263238" stroke-linecap="round" stroke-linejoin="round"/>
<path d="M45.36 251.98C45.3663 251.361 45.5054 250.751 45.7679 250.191C46.0303 249.63 46.4099 249.133 46.8811 248.731C47.864 247.855 53.0347 245.676 53.5293 247.479C54.0614 249.476 48.7717 253.376 45.36 251.98Z" fill="#9713CA" stroke="#263238" stroke-linecap="round" stroke-linejoin="round"/>
<path d="M45.36 251.98L50.5745 248.75" stroke="#263238" stroke-linecap="round" stroke-linejoin="round"/>
<path d="M43.8012 244.168L47.6261 240.124" stroke="#263238" stroke-linecap="round" stroke-linejoin="round"/>
<path d="M46.4617 241.332C46.4717 240.714 46.6124 240.105 46.8746 239.545C47.1368 238.985 47.5145 238.487 47.9829 238.083C48.9657 237.207 54.1427 235.028 54.631 236.831C55.1694 238.828 49.8734 242.728 46.4617 241.332Z" fill="#9713CA" stroke="#263238" stroke-linecap="round" stroke-linejoin="round"/>
<path d="M46.4617 241.332L51.6763 238.102" stroke="#263238" stroke-linecap="round" stroke-linejoin="round"/>
<path d="M45.3725 227.76L49.2474 224.511" stroke="#263238" stroke-linecap="round" stroke-linejoin="round"/>
<path d="M48.0831 225.726C48.0894 225.107 48.2285 224.497 48.491 223.936C48.7534 223.376 49.133 222.878 49.6042 222.477C50.5871 221.594 55.7641 219.416 56.2524 221.225C56.7907 223.222 51.4948 227.116 48.0831 225.726Z" fill="#9713CA" stroke="#263238" stroke-linecap="round" stroke-linejoin="round"/>
<path d="M48.0831 225.726L53.2976 222.489" stroke="#263238" stroke-linecap="round" stroke-linejoin="round"/>
<path d="M46.2551 218.533C46.2619 217.914 46.4012 217.304 46.6636 216.744C46.926 216.183 47.3054 215.686 47.7763 215.284C48.7591 214.408 53.9299 212.229 54.4244 214.032C54.9565 216.029 49.6668 219.929 46.2551 218.533Z" fill="#9713CA" stroke="#263238" stroke-linecap="round" stroke-linejoin="round"/>
<path d="M46.2551 218.533L51.4697 215.303" stroke="#263238" stroke-linecap="round" stroke-linejoin="round"/>
<path d="M46.468 218.765C45.8509 218.69 45.2571 218.484 44.7267 218.16C44.1964 217.836 43.7419 217.402 43.3943 216.887C42.6243 215.816 40.9967 210.445 42.8622 210.145C44.8905 209.85 48.202 215.522 46.468 218.765Z" fill="#9713CA" stroke="#263238" stroke-linecap="round" stroke-linejoin="round"/>
<path d="M46.468 218.765L43.795 213.243" stroke="#263238" stroke-linecap="round" stroke-linejoin="round"/>
<path d="M36.4645 272.82L33.2969 268.588" stroke="#263238" stroke-linecap="round" stroke-linejoin="round"/>
<path d="M34.3298 269.903C34.3886 269.291 34.3163 268.673 34.1177 268.091C33.9191 267.51 33.5987 266.977 33.178 266.528C32.2953 265.552 27.375 262.848 26.6926 264.613C25.9289 266.528 30.7929 270.948 34.3298 269.903Z" fill="#9713CA" stroke="#263238" stroke-linecap="round" stroke-linejoin="round"/>
<path d="M34.3298 269.915L29.7475 266.353" stroke="#263238" stroke-linecap="round" stroke-linejoin="round"/>
<path d="M36.5772 252.406L33.2969 249.351" stroke="#263238" stroke-linecap="round" stroke-linejoin="round"/>
<path d="M34.3298 250.678C34.3906 250.063 34.3192 249.442 34.1206 248.857C33.9219 248.272 33.6006 247.736 33.178 247.285C32.2953 246.309 27.375 243.611 26.6926 245.37C25.9289 247.285 30.7929 251.705 34.3298 250.678Z" fill="#9713CA" stroke="#263238" stroke-linecap="round" stroke-linejoin="round"/>
<path d="M34.3298 250.678L29.7475 247.11" stroke="#263238" stroke-linecap="round" stroke-linejoin="round"/>
<path d="M36.6836 231.178L33.2969 226.759" stroke="#263238" stroke-linecap="round" stroke-linejoin="round"/>
<path d="M34.3298 228.086C34.3905 227.472 34.3191 226.852 34.1204 226.268C33.9217 225.684 33.6004 225.149 33.178 224.699C32.2953 223.723 27.375 221.018 26.6926 222.784C25.9289 224.699 30.7929 229.119 34.3298 228.086Z" fill="#9713CA" stroke="#263238" stroke-linecap="round" stroke-linejoin="round"/>
<path d="M34.3298 228.086L29.7475 224.524" stroke="#263238" stroke-linecap="round" stroke-linejoin="round"/>
<path d="M36.4645 214.577L33.2969 211.722" stroke="#263238" stroke-linecap="round" stroke-linejoin="round"/>
<path d="M34.3298 213.049C34.3906 212.434 34.3192 211.814 34.1206 211.228C33.9219 210.643 33.6006 210.107 33.178 209.656C32.2953 208.686 27.375 205.982 26.6926 207.741C25.9289 209.656 30.7929 214.082 34.3298 213.049Z" fill="#9713CA" stroke="#263238" stroke-linecap="round" stroke-linejoin="round"/>
<path d="M34.3298 213.049L29.7475 209.481" stroke="#263238" stroke-linecap="round" stroke-linejoin="round"/>
<path d="M36.646 199.534L33.3595 197.124" stroke="#263238" stroke-linecap="round" stroke-linejoin="round"/>
<path d="M34.3298 197.944C34.3905 197.33 34.3191 196.71 34.1204 196.126C33.9217 195.542 33.6004 195.007 33.178 194.557C32.2953 193.581 27.375 190.876 26.6926 192.642C25.9289 194.557 30.7929 198.977 34.3298 197.944Z" fill="#9713CA" stroke="#263238" stroke-linecap="round" stroke-linejoin="round"/>
<path d="M34.3298 197.944L29.7475 194.382" stroke="#263238" stroke-linecap="round" stroke-linejoin="round"/>
<path d="M37.2658 277.934L40.0014 274.466" stroke="#263238" stroke-linecap="round" stroke-linejoin="round"/>
<path d="M38.9685 275.793C38.9148 275.178 38.9919 274.558 39.1947 273.974C39.3976 273.39 39.7215 272.856 40.1454 272.407C41.0343 271.43 45.9547 268.732 46.6307 270.491C47.3694 272.407 42.5054 276.82 38.9685 275.793Z" fill="#9713CA" stroke="#263238" stroke-linecap="round" stroke-linejoin="round"/>
<path d="M38.9685 275.793L43.82 272.037" stroke="#263238" stroke-linecap="round" stroke-linejoin="round"/>
<path d="M36.6085 248.287L40.0014 243.861" stroke="#263238" stroke-linecap="round" stroke-linejoin="round"/>
<path d="M38.9685 245.188C38.912 244.572 38.9877 243.952 39.1907 243.368C39.3937 242.783 39.7192 242.25 40.1454 241.801C41.0343 240.825 45.9547 238.121 46.6307 239.886C47.3694 241.801 42.5054 246.221 38.9685 245.188Z" fill="#9713CA" stroke="#263238" stroke-linecap="round" stroke-linejoin="round"/>
<path d="M38.9685 245.188L43.82 241.432" stroke="#263238" stroke-linecap="round" stroke-linejoin="round"/>
<path d="M36.6085 233.181L40.0014 228.762" stroke="#263238" stroke-linecap="round" stroke-linejoin="round"/>
<path d="M38.9685 230.089C38.9157 229.474 38.9932 228.856 39.196 228.273C39.3988 227.691 39.7223 227.158 40.1454 226.709C41.0343 225.732 45.9547 223.034 46.6307 224.793C47.3694 226.709 42.5054 231.091 38.9685 230.089Z" fill="#9713CA" stroke="#263238" stroke-linecap="round" stroke-linejoin="round"/>
<path d="M38.9685 230.089L43.82 226.333" stroke="#263238" stroke-linecap="round" stroke-linejoin="round"/>
<path d="M36.6085 213.218L40.0014 208.799" stroke="#263238" stroke-linecap="round" stroke-linejoin="round"/>
<path d="M38.9685 210.126C38.9139 209.509 38.9905 208.888 39.1934 208.303C39.3963 207.719 39.7207 207.183 40.1454 206.733C41.0343 205.756 45.9547 203.058 46.6307 204.817C47.3694 206.733 42.5054 211.159 38.9685 210.126Z" fill="#9713CA" stroke="#263238" stroke-linecap="round" stroke-linejoin="round"/>
<path d="M38.9685 210.126L43.82 206.37" stroke="#263238" stroke-linecap="round" stroke-linejoin="round"/>
<path d="M36.7587 195.991L40.0765 193.399" stroke="#263238" stroke-linecap="round" stroke-linejoin="round"/>
<path d="M38.9685 194.432C38.9121 193.813 38.9878 193.19 39.1907 192.603C39.3936 192.016 39.719 191.478 40.1454 191.027C41.0343 190.05 45.9547 187.352 46.6307 189.111C47.3694 191.027 42.5054 195.459 38.9685 194.432Z" fill="#9713CA" stroke="#263238" stroke-linecap="round" stroke-linejoin="round"/>
<path d="M38.9685 194.432L43.82 190.676" stroke="#263238" stroke-linecap="round" stroke-linejoin="round"/>
<path d="M36.4082 187.471C36.3503 186.856 36.4229 186.236 36.6214 185.651C36.8199 185.067 37.1398 184.531 37.56 184.078C38.4489 183.101 43.3693 180.403 44.0454 182.162C44.8091 184.078 39.9451 188.523 36.4082 187.471Z" fill="#9713CA" stroke="#263238" stroke-linecap="round" stroke-linejoin="round"/>
<path d="M36.4082 187.471L41.2597 183.715" stroke="#263238" stroke-linecap="round" stroke-linejoin="round"/>
<path d="M36.646 187.678C36.0269 187.669 35.4167 187.529 34.8564 187.265C34.2961 187.002 33.7985 186.622 33.3971 186.15C32.5207 185.167 30.3485 179.99 32.1451 179.502C34.1546 178.97 38.042 184.266 36.646 187.678Z" fill="#9713CA" stroke="#263238" stroke-linecap="round" stroke-linejoin="round"/>
<path d="M36.646 187.678L33.4159 182.457" stroke="#263238" stroke-linecap="round" stroke-linejoin="round"/>
<path opacity="0.2" d="M58.4121 99.3677L93.7811 105.096L151.573 97.1266L194.661 108.57L238.124 98.8732L278.42 175.946L213.479 191.271L151.16 184.848L78.3251 191.715L32.4143 173.405L58.4121 99.3677Z" fill="#AAAAAA"/>
<path d="M48.4086 67.8048L87.4209 74.1212L151.179 65.3321L198.705 77.9523L246.65 67.2539L291.109 152.284L219.469 169.186L150.722 162.099L70.3749 169.674L19.7315 149.479L48.4086 67.8048Z" fill="white" stroke="#263238" stroke-linecap="round" stroke-linejoin="round"/>
<path d="M55.8267 73.2949L86.3004 78.7849L150.828 70.553L199.7 82.0839L241.987 72.4748L278.238 149.179L217.072 164.39L151.166 158.068L70.9258 163.633L32.5958 146.637L55.8267 73.2949Z" fill="#F1CCFF" stroke="#263238" stroke-linecap="round" stroke-linejoin="round"/>
<g opacity="0.64">
<path d="M229.398 107.218L205.772 113.403H198.586C198.586 113.403 207.832 122.304 225.629 124.013C243.426 125.722 247.539 122.304 247.539 122.304L229.398 107.218Z" fill="white"/>
<path d="M126.696 76.068L110.946 79.4922L108.893 84.9697L118.821 82.9165L116.423 95.2361L128.067 93.8715L130.12 79.8303L126.696 76.068Z" fill="white"/>
<path d="M116.768 97.2894L115.741 103.456L122.59 102.085V96.9514L116.768 97.2894Z" fill="white"/>
<path d="M112.661 97.2894L111.29 104.138L97.9377 105.853L98.282 101.058L112.661 97.2894Z" fill="white"/>
<path d="M191.556 127.763C185.033 127.763 179.743 131.131 179.743 135.275C179.743 139.419 185.033 142.787 191.556 142.787C198.079 142.787 203.369 139.413 203.369 135.275C203.369 131.137 198.091 127.763 191.556 127.763ZM191.556 138.712C188.589 138.712 186.185 137.184 186.185 135.294C186.185 133.403 188.589 131.87 191.556 131.87C194.523 131.87 196.94 133.435 196.94 135.313C196.94 137.191 194.536 138.712 191.556 138.712Z" fill="white"/>
<path d="M97.9377 154.806L107.184 132.208L86.6447 133.241L83.5585 141.109H93.1425L85.9561 157.542L97.9377 154.806Z" fill="white"/>
<path d="M137.651 105.509L151.342 102.429L169.145 107.906L155.448 110.298L151.686 107.218L137.651 109.96V105.509Z" fill="white"/>
<path d="M138.333 92.5005L138.678 101.402L144.838 100.031L143.811 92.1562L138.333 92.5005Z" fill="white"/>
<path d="M53.0911 97.2894L47.6136 113.04L69.8679 118.861L73.2921 106.535L63.708 97.6337L53.0911 97.2894Z" fill="white"/>
</g>
<path d="M273.562 139.275L264.704 130.511C266.232 130.317 267.709 130.104 269.124 129.885L268.016 127.531C266.244 127.794 264.385 128.045 262.444 128.27L236.04 102.135C243.057 101.089 249.724 100.188 254.82 99.662L253.686 97.2706C248.178 97.8591 241.166 98.8294 233.942 99.9186L234.018 99.4616L233.172 99.3302L223.864 90.1155L244.766 78.3028L243.696 76.0367L222.036 88.2813L212.771 79.1166L209.879 79.7426L228.991 98.6478L168.206 89.1389C167.912 88.4691 167.618 87.7993 167.349 87.1107C165.611 82.6983 164.262 78.1424 163.317 73.4952L160.625 72.8692C161.614 78.0232 163.081 83.0739 165.007 87.9558L165.308 88.6882L151.066 86.4533L136.368 87.7367L135.842 72.4622L133.338 72.7815L134.709 114.567C133.858 114.567 133.006 114.567 132.205 114.529C109.074 113.86 84.0906 107.111 80.3909 105.096C77.8869 103.712 72.2529 97.1955 69.2544 93.4958C75.3829 93.1766 81.3111 92.3503 84.8167 90.5286C89.6244 88.0246 100.999 81.4203 110.771 75.6611L104.461 76.4687C96.116 81.3577 87.6337 86.253 83.6712 88.3063C76.5786 91.9872 57.5857 91.2235 50.2928 90.7728L49.5103 93.2392C52.2272 93.4207 56.9723 93.6711 62.2307 93.6711C63.4827 93.6711 64.8286 93.6711 66.1494 93.621C67.0884 94.8104 75.3203 105.177 79.1953 107.293C83.0702 109.409 108.223 116.339 132.136 117.027C133.017 117.052 133.912 117.065 134.822 117.065L135.009 122.78L115.873 123.337L115.585 123.237L115.547 123.344L77.5364 124.452L42.4428 115.562L41.6853 117.954L63.3011 123.419L43.2691 151.357L45.6104 152.39L65.9303 124.082L77.286 126.956L114.677 125.866L103.791 156.597L91.0016 162.231L98.3759 161.724L151.16 138.486L188.827 118.31C193.114 121.169 197.74 123.482 202.599 125.196C207.007 126.742 211.508 128.007 216.076 128.984L210.555 140.033L187.8 161.605L191.105 161.918L212.439 141.698L212.596 141.548L218.618 129.503C224.958 130.705 231.377 131.442 237.824 131.707L232.753 160.503L235.414 159.846L240.384 131.776C241.692 131.807 242.988 131.832 244.271 131.832C250.037 131.826 255.798 131.51 261.53 130.887L276.698 145.911L273.562 139.275ZM106.933 155.226L117.337 125.804L135.091 125.297L135.66 142.593L106.933 155.226ZM227.351 100.964C212.827 103.255 198.962 105.734 195.944 106.335L193.44 106.842C190.761 107.399 186.586 108.269 181.515 109.221C176.518 104.172 172.425 98.3027 169.414 91.8683L227.351 100.964ZM136.468 90.2407L150.96 88.9887L166.447 91.4175C169.472 98.1709 173.599 104.374 178.66 109.772C170.147 111.318 159.63 112.983 149.382 113.891L149.276 113.734L148.988 113.928C144.982 114.273 141.025 114.504 137.244 114.554L136.468 90.2407ZM137.344 117.033C139.773 116.996 142.277 116.883 144.813 116.72L137.501 121.653L137.344 117.033ZM150.127 136.202L138.146 141.472L137.595 124.614L149.864 116.332C160.832 115.343 172.056 113.515 180.833 111.888C182.634 113.608 184.543 115.211 186.548 116.689L150.127 136.202ZM203.45 122.793C196.209 120.297 189.53 116.4 183.794 111.324C188.082 110.504 191.606 109.772 193.972 109.277L196.433 108.77C200.902 107.875 217.341 105.014 232.947 102.604L259.239 128.602C243.433 130.123 223.15 129.754 203.45 122.793Z" fill="white" stroke="#263238" stroke-linecap="round" stroke-linejoin="round"/>
<path d="M74.663 142.08L70.6504 165.555" stroke="#263238" stroke-linecap="round" stroke-linejoin="round"/>
<path d="M85.7557 77.1385L75.4768 137.31" stroke="#263238" stroke-linecap="round" stroke-linejoin="round"/>
<path d="M150.659 67.8486L151.004 92.1562" stroke="#263238" stroke-linecap="round" stroke-linejoin="round"/>
<path d="M201.315 96.6885L215.363 155.833" stroke="#263238" stroke-linecap="round" stroke-linejoin="round"/>
<path d="M197.559 80.8569L200.646 93.8652" stroke="#263238" stroke-linecap="round" stroke-linejoin="round"/>
<path d="M151.342 160.284L151.004 145.905" stroke="#263238" stroke-linecap="round" stroke-linejoin="round"/>
<path d="M229.371 46.61C233.855 45.5451 236.627 41.0469 235.562 36.563C234.497 32.0792 229.999 29.3076 225.515 30.3725C221.031 31.4374 218.259 35.9355 219.324 40.4194C220.389 44.9032 224.887 47.6749 229.371 46.61Z" fill="#263238"/>
<path d="M231.476 37.7318C231.477 36.8562 231.219 35.9999 230.733 35.2712C230.248 34.5426 229.557 33.9744 228.748 33.6384C227.94 33.3025 227.05 33.2139 226.191 33.384C225.332 33.5541 224.542 33.9751 223.923 34.5938C223.303 35.2125 222.881 36.0011 222.71 36.8598C222.539 37.7185 222.626 38.6087 222.961 39.4178C223.295 40.2269 223.863 40.9184 224.591 41.405C225.319 41.8916 226.175 42.1514 227.05 42.1514C228.223 42.1514 229.348 41.6859 230.178 40.8573C231.007 40.0286 231.474 38.9045 231.476 37.7318Z" stroke="white" stroke-width="2" stroke-linecap="round" stroke-linejoin="round"/>
<path d="M230.08 41.2186L232.872 43.7789" stroke="white" stroke-width="2" stroke-linecap="round" stroke-linejoin="round"/>
<path d="M206.624 47.6726H73.5362C72.3451 47.6727 71.1657 47.4377 70.0654 46.9813C68.9652 46.525 67.9658 45.856 67.1244 45.0129C66.2831 44.1698 65.6162 43.169 65.1621 42.0678C64.708 40.9667 64.4755 39.7868 64.478 38.5956C64.4755 37.4045 64.708 36.2246 65.1621 35.1235C65.6162 34.0223 66.2831 33.0215 67.1244 32.1784C67.9658 31.3353 68.9652 30.6663 70.0654 30.21C71.1657 29.7536 72.3451 29.5186 73.5362 29.5186H206.624C207.815 29.5178 208.996 29.7521 210.097 30.2082C211.197 30.6642 212.198 31.333 213.04 32.1762C213.882 33.0194 214.549 34.0204 215.004 35.122C215.458 36.2236 215.691 37.404 215.688 38.5956C215.691 39.7873 215.458 40.9677 215.004 42.0693C214.549 43.1709 213.882 44.1719 213.04 45.0151C212.198 45.8583 211.197 46.5271 210.097 46.9831C208.996 47.4392 207.815 47.6735 206.624 47.6726Z" fill="white" stroke="#263238" stroke-linecap="round" stroke-linejoin="round"/>
<path d="M276.385 226.189H239.451C237.611 226.184 235.84 226.884 234.5 228.145C233.16 229.406 232.353 231.132 232.246 232.969L229.385 283.675H280.767L283.578 233.795C283.633 232.816 283.488 231.837 283.152 230.916C282.815 229.996 282.294 229.154 281.621 228.442C280.948 227.73 280.136 227.162 279.236 226.775C278.335 226.388 277.365 226.188 276.385 226.189Z" fill="#263238" stroke="#263238" stroke-linecap="round" stroke-linejoin="round"/>
<path d="M205.14 207.866C205.14 207.866 186.36 211.841 184.745 213.963C183.13 216.085 151.367 268.532 151.367 268.532C151.367 268.532 152.688 281.515 154.81 281.246C156.932 280.977 156.4 282.836 163.574 278.072C170.748 273.308 184.77 261.646 184.77 261.646L192.182 283.631H254.156C254.156 283.631 254.682 214.489 252.829 209.725C250.976 204.961 235.614 201.512 230.293 201.512C224.972 201.512 205.14 207.866 205.14 207.866Z" fill="white" stroke="#263238" stroke-linecap="round" stroke-linejoin="round"/>
<path d="M203.638 231.717L207.876 235.955L226.224 202.063C218.493 203.603 205.14 207.872 205.14 207.872C205.14 207.872 195.706 209.869 189.64 211.785L181.609 218.921C174.548 230.327 157.821 257.858 152.813 266.14L154.816 281.252C156.919 280.995 156.406 282.836 163.543 278.078C170.679 273.321 184.739 261.652 184.739 261.652L188.251 272.075C187.399 267.693 184.031 249.996 185.265 246.903C186.686 243.367 203.638 231.717 203.638 231.717Z" fill="#263238" stroke="#263238" stroke-linecap="round" stroke-linejoin="round"/>
<path d="M201.165 216.167L184.92 239.836V226.414L201.165 216.167Z" fill="white" stroke="#263238" stroke-linecap="round" stroke-linejoin="round"/>
<path d="M208.158 243.68C208.158 243.68 206.217 258.973 206.461 261.646C206.705 264.319 211.068 280.576 211.068 280.576" fill="white"/>
<path d="M208.158 243.68C208.158 243.68 206.217 258.973 206.461 261.646C206.705 264.319 211.068 280.576 211.068 280.576" stroke="#263238" stroke-linecap="round" stroke-linejoin="round"/>
<path d="M205.954 206.345C205.954 206.345 201.422 215.021 197.979 222.702C194.536 230.383 194.529 235.948 194.529 235.948C194.529 235.948 206.186 228.267 207.513 227.472C208.84 226.677 211.488 225.35 211.488 225.35L226.324 235.948C226.324 235.948 227.645 223.76 228.202 210.783C228.759 197.806 224.227 192.767 220.521 192.504C216.815 192.241 205.954 206.345 205.954 206.345Z" fill="white" stroke="#263238" stroke-linecap="round" stroke-linejoin="round"/>
<path d="M170.447 180.065C170.447 180.065 163.636 196.122 165.577 200.179C167.518 204.235 172.231 197.587 172.231 197.587C172.231 197.587 174.341 212.023 178.072 210.883C181.803 209.744 187.462 205.206 187.462 205.206C187.462 205.206 193.465 214.777 197.522 214.777C201.578 214.777 205.954 206.345 205.954 206.345C205.954 206.345 212.12 181.85 212.446 179.258C212.771 176.666 211.632 159.789 202.223 156.547C192.814 153.304 179.036 162.062 175.149 167.239C171.261 172.416 170.447 180.065 170.447 180.065Z" fill="#263238" stroke="#263238" stroke-linecap="round" stroke-linejoin="round"/>
<path d="M179.975 193.562C179.975 193.562 177.853 200.98 177.853 203.365C177.853 205.75 177.327 214.226 177.058 215.816C176.789 217.406 149.777 250.522 145.802 257.132C141.827 263.743 139.711 269.853 143.68 275.149C147.648 280.444 151.63 282.304 154.81 281.24C157.99 280.175 157.721 280.977 162.754 275.411C167.787 269.846 182.886 224.549 182.886 224.549C182.886 224.549 187.656 222.17 189.772 220.58C191.888 218.99 195.6 210.245 195.6 210.245L179.975 193.562Z" fill="#FFBE9D" stroke="#263238" stroke-linecap="round" stroke-linejoin="round"/>
<path d="M143.68 275.155C147.655 280.451 151.63 282.31 154.81 281.246C157.99 280.182 157.721 280.983 162.754 275.418C163.837 274.222 165.389 271.186 167.136 267.155C161.045 268.657 153.877 269.659 152.406 268.795C148.168 266.291 145.783 257.139 145.783 257.139C141.827 263.762 139.711 269.859 143.68 275.155Z" fill="white" stroke="#263238" stroke-linecap="round" stroke-linejoin="round"/>
<path d="M177.427 176.159C177.427 176.159 179.931 181.743 179.931 185.098C179.931 188.454 176.3 193.199 178.535 196.83C180.77 200.46 187.75 214.702 187.75 214.702C187.75 214.702 191.381 216.661 195.018 214.702C198.655 212.743 206.186 209.118 206.186 209.118C206.186 209.118 205.071 228.668 206.467 233.419C207.863 238.171 208.702 240.399 208.702 240.399C208.702 240.399 212.333 224.48 216.214 217.237C220.095 209.994 222.08 197.124 222.08 197.124C222.08 197.124 221.798 192.116 222.08 187.07C222.361 182.025 214.536 162.769 201.966 158.581C189.396 154.393 182.416 158.581 179.061 163.589C175.706 168.597 177.427 176.159 177.427 176.159Z" fill="#FFBE9D" stroke="#263238" stroke-linecap="round" stroke-linejoin="round"/>
<path d="M185.252 192.905C185.252 192.905 189.44 198.213 195.03 193.744" stroke="#263238" stroke-linecap="round" stroke-linejoin="round"/>
<path d="M189.44 200.179C189.44 200.179 198.098 202.414 202.586 194.031" stroke="#263238" stroke-linecap="round" stroke-linejoin="round"/>
<path d="M197.372 184.767C197.372 185.881 196.789 186.789 196.076 186.789C195.362 186.789 194.774 185.881 194.774 184.767C194.774 183.652 195.356 182.738 196.076 182.738C196.796 182.738 197.372 183.652 197.372 184.767Z" fill="#263238"/>
<path d="M185.046 184.767C185.046 185.881 184.463 186.789 183.75 186.789C183.036 186.789 182.448 185.881 182.448 184.767C182.448 183.652 183.03 182.738 183.75 182.738C184.47 182.738 185.046 183.652 185.046 184.767Z" fill="#263238"/>
<path d="M195.099 174.876C195.099 174.876 198.993 174.388 201.591 176.497" stroke="#263238" stroke-width="2" stroke-linecap="round" stroke-linejoin="round"/>
<path d="M186.016 174.876C184.108 174.877 182.265 175.569 180.826 176.823" stroke="#263238" stroke-width="2" stroke-linecap="round" stroke-linejoin="round"/>
<path d="M206.198 209.118L214.079 205.206L205.967 217.049L206.198 209.118Z" fill="#263238" stroke="#263238" stroke-linecap="round" stroke-linejoin="round"/>
<path d="M212.064 138.167C212.064 138.167 201.728 131.187 196.145 132.302C190.561 133.416 176.87 142.944 174.36 143.757C171.85 144.571 158.434 151.019 158.434 155.764C158.434 160.509 164.582 162.469 164.582 162.469C164.582 162.469 149.495 175.615 153.408 178.119C157.32 180.623 167.098 175.327 167.098 175.327C167.098 175.327 160.951 185.105 164.863 185.937C168.776 186.77 174.654 180.347 174.654 180.347C174.654 180.347 176.05 182.582 180.244 178.394C184.438 174.206 189.741 165.824 189.741 165.824C189.741 165.824 189.183 171.408 192.245 170.569C195.306 169.73 199.231 164.146 199.231 164.146C199.231 164.146 201.735 189.844 205.654 187.89C209.572 185.937 209.566 183.421 209.566 183.421C209.566 183.421 209.841 193.756 212.358 192.917C214.875 192.078 216.27 189.286 216.27 189.286C216.27 189.286 219.062 199.897 222.412 199.622C223.34 199.564 224.224 199.205 224.93 198.6C225.636 197.994 226.126 197.175 226.324 196.266C226.324 196.266 227.163 207.998 234.424 205.487C241.686 202.977 242.807 195.152 242.807 195.152C242.807 195.152 248.109 201.299 251.182 196.83C254.256 192.36 252.278 186.77 252.278 186.77C252.278 186.77 257.286 186.213 256.748 182.025C256.209 177.837 246.412 165.267 246.412 165.267C246.412 165.267 252.553 166.099 248.365 159.119C244.178 152.14 236.634 145.973 231.326 142.637C228.217 140.653 224.828 139.146 221.272 138.167C221.272 138.167 229.648 135.1 223.225 134.261C216.803 133.422 212.064 138.167 212.064 138.167Z" fill="#263238" stroke="#263238" stroke-linecap="round" stroke-linejoin="round"/>
<path d="M234.368 233.125L235.62 255.286C235.62 255.286 230.612 254.491 230.612 255.286C230.612 256.081 231.62 266.147 231.62 266.147C231.62 266.147 241.154 271.712 246.187 273.033C251.22 274.354 250.425 278.861 252.81 278.041C255.195 277.221 260.491 276.451 261.574 271.68C262.657 266.91 259.696 257.908 259.452 256.844C259.208 255.78 257.574 214.727 254.156 207.572C250.738 200.417 244.616 200.417 240.647 202.007C236.678 203.597 232.434 210.771 232.434 210.771" fill="white"/>
<path d="M234.368 233.125L235.62 255.286C235.62 255.286 230.612 254.491 230.612 255.286C230.612 256.081 231.62 266.147 231.62 266.147C231.62 266.147 241.154 271.712 246.187 273.033C251.22 274.354 250.425 278.861 252.81 278.041C255.195 277.221 260.491 276.451 261.574 271.68C262.657 266.91 259.696 257.908 259.452 256.844C259.208 255.78 257.574 214.727 254.156 207.572C250.738 200.417 244.616 200.417 240.647 202.007C236.678 203.597 232.434 210.771 232.434 210.771" stroke="#263238" stroke-linecap="round" stroke-linejoin="round"/>
<path d="M257.524 262.046C258.776 263.768 259.715 265.089 259.715 265.089" stroke="#263238" stroke-linecap="round" stroke-linejoin="round"/>
<path d="M237.986 254.253C237.986 254.253 248.322 253.721 250.438 254.253C251.527 254.522 253.937 257.383 256.028 260.081" stroke="#263238" stroke-linecap="round" stroke-linejoin="round"/>
<path d="M251.502 250.497C254.676 251.555 255.471 252.875 255.471 252.875" stroke="#263238" stroke-linecap="round" stroke-linejoin="round"/>
<path d="M239.051 251.843C241.366 251.269 243.711 250.82 246.074 250.497" stroke="#263238" stroke-linecap="round" stroke-linejoin="round"/>
<path d="M257.086 273.233C257.374 268.525 252.009 259.705 245.674 258.729C238.788 257.671 227.125 262.967 211.5 264.826C195.875 266.685 188.714 267.211 183.418 267.211C178.122 267.211 165.934 263.762 163.818 264.294C161.702 264.826 151.893 275.155 149.777 277.54C147.661 279.925 148.118 280.67 148.587 280.901C149.057 281.133 150.24 280.545 150.24 280.545C150.24 280.545 151.173 281.828 152.337 281.828C153.105 281.789 153.841 281.504 154.434 281.014C155.2 281.481 156.113 281.646 156.995 281.477C158.278 281.127 165.759 276.119 166.316 275.887C166.873 275.656 170.51 274.604 170.51 274.604C168.494 276.179 166.35 277.582 164.1 278.798C161.42 280.05 159.33 281.246 160.726 281.928C162.121 282.61 164.482 281.815 166.316 281.002C168.15 280.188 170.51 279.124 171.324 279.017C172.137 278.911 178.41 275.775 178.41 275.775C178.41 275.775 183.65 276.939 186.097 277.177C188.545 277.415 193.904 275.192 193.904 275.192C193.904 275.192 213.241 278.573 223.025 279.155C232.809 279.737 248.416 281.947 253.655 279.268C253.649 279.293 256.791 278.041 257.086 273.233Z" fill="#FFBE9D" stroke="#263238" stroke-linecap="round" stroke-linejoin="round"/>
<path d="M154.409 281.02C154.409 281.02 162.491 272.945 163.373 272.256C164.256 271.568 169.377 270.134 169.377 270.134" stroke="#263238" stroke-linecap="round" stroke-linejoin="round"/>
<path d="M150.24 280.545C150.24 280.545 158.804 271.53 159.868 270.291C160.932 269.051 164.813 267.468 164.813 267.468" stroke="#263238" stroke-linecap="round" stroke-linejoin="round"/>
<path d="M64.5406 91.2861C63.7764 91.2861 63.0196 91.4367 62.3136 91.7294C61.6077 92.022 60.9663 92.4509 60.4262 92.9916C59.8861 93.5323 59.4578 94.1741 59.1659 94.8804C58.8741 95.5867 58.7242 96.3436 58.7251 97.1079C58.7251 100.319 64.5406 106.31 64.5406 106.31C64.5406 106.31 70.3624 100.319 70.3624 97.1079C70.3624 95.5638 69.749 94.083 68.6572 92.9912C67.5654 91.8994 66.0846 91.2861 64.5406 91.2861ZM64.5406 99.4241C64.1503 99.4241 63.7688 99.3083 63.4444 99.0913C63.12 98.8744 62.8673 98.566 62.7182 98.2053C62.5691 97.8446 62.5305 97.4478 62.6071 97.0652C62.6837 96.6825 62.8721 96.3311 63.1485 96.0556C63.4249 95.7801 63.7768 95.5928 64.1597 95.5174C64.5427 95.442 64.9394 95.482 65.2996 95.6322C65.6598 95.7824 65.9673 96.0361 66.1832 96.3612C66.3991 96.6863 66.5137 97.0682 66.5125 97.4584C66.5092 97.9792 66.3 98.4776 65.9305 98.8447C65.5611 99.2118 65.0614 99.4178 64.5406 99.4178V99.4241Z" fill="#263238" stroke="#263238" stroke-linecap="round" stroke-linejoin="round"/>
<path d="M124.95 64.3681C124.185 64.3681 123.429 64.5187 122.723 64.8114C122.017 65.104 121.375 65.5329 120.835 66.0736C120.295 66.6143 119.867 67.2561 119.575 67.9624C119.283 68.6687 119.133 69.4256 119.134 70.1899C119.134 73.4013 124.95 79.3921 124.95 79.3921C124.95 79.3921 130.771 73.4013 130.771 70.1899C130.771 68.6458 130.158 67.165 129.066 66.0732C127.974 64.9814 126.494 64.3681 124.95 64.3681ZM124.95 72.5061C124.559 72.5061 124.178 72.3903 123.853 72.1733C123.529 71.9564 123.276 71.648 123.127 71.2873C122.978 70.9267 122.939 70.5298 123.016 70.1472C123.093 69.7645 123.281 69.4131 123.557 69.1376C123.834 68.8621 124.186 68.6748 124.569 68.5994C124.952 68.524 125.348 68.564 125.709 68.7142C126.069 68.8644 126.376 69.1181 126.592 69.4432C126.808 69.7683 126.923 70.1502 126.922 70.5404C126.918 71.0612 126.709 71.5596 126.34 71.9267C125.97 72.2938 125.47 72.4998 124.95 72.4998V72.5061Z" fill="#263238" stroke="#263238" stroke-linecap="round" stroke-linejoin="round"/>
<path d="M115.096 105.365C114.332 105.364 113.575 105.514 112.869 105.806C112.163 106.098 111.521 106.526 110.98 107.066C110.439 107.606 110.01 108.247 109.718 108.953C109.425 109.659 109.275 110.416 109.275 111.18C109.275 114.398 115.096 120.383 115.096 120.383C115.096 120.383 120.912 114.398 120.912 111.18C120.912 109.638 120.299 108.159 119.209 107.068C118.118 105.978 116.639 105.365 115.096 105.365ZM115.096 113.503C114.708 113.503 114.329 113.388 114.006 113.172C113.683 112.957 113.431 112.651 113.282 112.292C113.132 111.934 113.093 111.539 113.168 111.158C113.242 110.777 113.428 110.427 113.702 110.152C113.976 109.876 114.325 109.688 114.705 109.611C115.086 109.534 115.481 109.571 115.84 109.718C116.199 109.864 116.507 110.114 116.725 110.436C116.942 110.758 117.06 111.136 117.062 111.525C117.062 112.046 116.855 112.546 116.486 112.915C116.118 113.283 115.618 113.49 115.096 113.49V113.503Z" fill="#263238" stroke="#263238" stroke-linecap="round" stroke-linejoin="round"/>
<path d="M231.845 101.609C231.081 101.608 230.324 101.758 229.618 102.05C228.912 102.342 228.27 102.77 227.729 103.31C227.188 103.85 226.759 104.491 226.467 105.197C226.174 105.903 226.024 106.66 226.024 107.424C226.024 110.642 231.845 116.627 231.845 116.627C231.845 116.627 237.661 110.642 237.661 107.424C237.661 105.882 237.048 104.403 235.958 103.312C234.867 102.222 233.388 101.609 231.845 101.609ZM231.845 109.747C231.457 109.747 231.078 109.632 230.755 109.416C230.432 109.201 230.18 108.895 230.031 108.536C229.881 108.178 229.842 107.783 229.917 107.402C229.991 107.021 230.177 106.671 230.451 106.396C230.725 106.12 231.074 105.932 231.454 105.855C231.835 105.778 232.23 105.815 232.589 105.962C232.948 106.108 233.256 106.358 233.474 106.68C233.691 107.002 233.809 107.38 233.811 107.769C233.811 108.29 233.604 108.79 233.235 109.159C232.867 109.527 232.367 109.734 231.845 109.734V109.747Z" fill="#263238" stroke="#263238" stroke-linecap="round" stroke-linejoin="round"/>
<path d="M165.176 120.076C164.412 120.075 163.655 120.225 162.949 120.517C162.243 120.809 161.601 121.237 161.06 121.777C160.519 122.317 160.09 122.958 159.798 123.664C159.505 124.37 159.355 125.127 159.355 125.891C159.355 129.109 165.176 135.094 165.176 135.094C165.176 135.094 170.992 129.109 170.992 125.891C170.992 125.128 170.841 124.371 170.549 123.666C170.257 122.96 169.829 122.319 169.289 121.779C168.749 121.239 168.107 120.811 167.402 120.518C166.696 120.226 165.94 120.076 165.176 120.076ZM165.176 128.214C164.788 128.214 164.409 128.099 164.086 127.883C163.763 127.668 163.511 127.362 163.362 127.003C163.212 126.645 163.173 126.25 163.248 125.869C163.322 125.488 163.508 125.138 163.782 124.863C164.056 124.587 164.405 124.399 164.785 124.322C165.166 124.245 165.561 124.282 165.92 124.429C166.279 124.575 166.587 124.825 166.805 125.147C167.022 125.469 167.14 125.847 167.142 126.236C167.142 126.757 166.935 127.257 166.566 127.626C166.198 127.994 165.698 128.201 165.176 128.201V128.214Z" fill="#263238" stroke="#263238" stroke-linecap="round" stroke-linejoin="round"/>
<path d="M189.59 69.6828C188.826 69.682 188.069 69.8318 187.363 70.1237C186.657 70.4156 186.015 70.8438 185.474 71.3839C184.933 71.924 184.504 72.5654 184.212 73.2714C183.919 73.9774 183.769 74.7341 183.769 75.4983C183.769 78.716 189.59 84.7005 189.59 84.7005C189.59 84.7005 195.406 78.716 195.406 75.4983C195.406 73.956 194.793 72.4768 193.703 71.3861C192.612 70.2955 191.133 69.6828 189.59 69.6828ZM189.59 77.8208C189.202 77.8208 188.823 77.7058 188.5 77.4904C188.177 77.2749 187.925 76.9687 187.776 76.6102C187.626 76.2518 187.587 75.8572 187.662 75.4763C187.736 75.0953 187.922 74.7451 188.196 74.4697C188.47 74.1943 188.819 74.0061 189.199 73.9288C189.58 73.8516 189.975 73.8887 190.334 74.0356C190.693 74.1824 191.001 74.4324 191.219 74.754C191.436 75.0756 191.554 75.4544 191.556 75.8426C191.556 76.364 191.349 76.8639 190.98 77.2326C190.612 77.6012 190.112 77.8083 189.59 77.8083V77.8208Z" fill="#263238" stroke="#263238" stroke-linecap="round" stroke-linejoin="round"/>
<path d="M170.385 280.639H51.7201V284.031H170.385V280.639Z" fill="#263238" stroke="#263238" stroke-linecap="round" stroke-linejoin="round"/>
<path d="M170.385 280.639H128.731V284.031H170.385V280.639Z" fill="#9713CA" stroke="#263238" stroke-linecap="round" stroke-linejoin="round"/>
<path d="M132.086 280.639H55.0379L50.5871 229.394C50.5256 228.831 50.5848 228.262 50.7607 227.723C50.9366 227.185 51.2251 226.69 51.6072 226.272C51.9892 225.854 52.4559 225.522 52.9762 225.298C53.4965 225.074 54.0585 224.964 54.6248 224.975H122.859C124.061 224.996 125.214 225.458 126.099 226.272C126.984 227.087 127.539 228.198 127.66 229.394L132.086 280.639Z" fill="white" stroke="#263238" stroke-linecap="round" stroke-linejoin="round"/>
<path d="M130.609 280.639H53.5606L49.1097 229.394C49.0483 228.831 49.1074 228.262 49.2833 227.723C49.4592 227.185 49.7478 226.69 50.1298 226.272C50.5118 225.854 50.9785 225.522 51.4988 225.298C52.0191 225.074 52.5811 224.964 53.1474 224.975H121.381C122.584 224.996 123.737 225.458 124.622 226.272C125.507 227.087 126.062 228.198 126.183 229.394L130.609 280.639Z" fill="#F1CCFF" stroke="#263238" stroke-linecap="round" stroke-linejoin="round"/>
<path d="M127.178 241.119L53.5606 280.639H130.609L127.178 241.119Z" fill="#263238" stroke="#263238" stroke-linecap="round" stroke-linejoin="round"/>
<path d="M90.3829 254.692C92.15 252.847 91.9509 249.789 89.9383 247.861C87.9257 245.934 84.8617 245.868 83.0946 247.713C81.3275 249.558 81.5265 252.616 83.5391 254.544C85.5517 256.471 88.6158 256.538 90.3829 254.692Z" fill="#263238" stroke="#263238" stroke-linecap="round" stroke-linejoin="round"/>
<path d="M294.377 261.201C292.837 259.11 287.879 257.927 286.314 258.697V262.679C293.657 261.658 294.821 268.907 292.43 272.62C291.773 273.605 290.849 274.383 289.765 274.861C288.682 275.339 287.484 275.497 286.314 275.318V278.748C287.566 279.186 289.863 279.374 292.711 277.064C297.162 273.44 297.857 265.909 294.377 261.201Z" fill="white" stroke="#263238" stroke-linecap="round" stroke-linejoin="round"/>
<path d="M286.864 252.9H265.174V283.725H286.864V252.9Z" fill="white" stroke="#263238" stroke-linecap="round" stroke-linejoin="round"/>
<path d="M269.556 234.847C269.374 233.899 269.461 232.919 269.806 232.017" stroke="white" stroke-linecap="round" stroke-linejoin="round"/>
<path d="M269.806 249.558C269.806 249.558 274.188 246.741 272.623 242.672C271.809 240.562 270.745 238.615 270.081 236.8" stroke="white" stroke-linecap="round" stroke-linejoin="round"/>
<path d="M274.814 249.558C274.814 249.558 279.196 246.741 277.631 242.672C277.155 241.42 276.598 240.268 276.085 239.147" stroke="white" stroke-linecap="round" stroke-linejoin="round"/>
<path d="M281.7 240.481C280.273 237.351 278.802 234.596 279.822 232.048" stroke="white" stroke-linecap="round" stroke-linejoin="round"/>
<path d="M279.822 249.558C279.822 249.558 283.522 247.179 282.908 243.636" stroke="white" stroke-linecap="round" stroke-linejoin="round"/>
<path d="M9.39 283.712H304.862" stroke="#263238" stroke-linecap="round" stroke-linejoin="round"/>
</svg>
